<?xml version="1.0" encoding="utf-8"?>
<!-- Generator: Adobe Illustrator 17.1.0, SVG Export Plug-In . SVG Version: 6.00 Build 0)  -->
<!DOCTYPE svg PUBLIC "-//W3C//DTD SVG 1.1//EN" "http://www.w3.org/Graphics/SVG/1.1/DTD/svg11.dtd">
<svg version="1.1" id="Layer_1" xmlns="http://www.w3.org/2000/svg" xmlns:xlink="http://www.w3.org/1999/xlink" x="0px" y="0px"
	 viewBox="-194.9 168.1 1389.8 663.7" enable-background="new -194.9 168.1 1389.8 663.7" xml:space="preserve">
<path fill="#F25042" d="M-2468.3-983.8v663.5c0,92.8,75.2,168,168,168h663.5c92.8,0,168-75.2,168-168v-663.5
	c0-92.8-75.2-168-168-168h-663.5C-2393.1-1151.9-2468.3-1076.6-2468.3-983.8z M-1992.6-210c-244.1-15.3-429.7-225.2-414.4-469.4
	s225.2-429.7,469.4-414.4c100.9,6.3,191.4,45.9,262.2,107.2c-54.5-33.8-117.6-55-186-59c-220.3-13.5-410.4,154.1-423.9,374.3
	c-13.5,220.3,154.1,410.4,374.3,423.9c68.5,4.1,133.8-9,191.9-35.6C-1797.1-231.6-1891.7-203.7-1992.6-210z M-1528.7-825.3
	c-0.9,5.4-2.7,9.5-6.3,12.6c-27.5,26.6-53.6,55-78.4,84.7c-24.3,29.7-46.8,60.4-67.1,91.4c3.6,4.5,5.4,9,5.9,12.6
	c0.5,4.1,0,6.8-0.5,9c-1.8,9-7.7,14.9-17.1,17.6c-3.2,0.9-6.3,1.8-9,1.8c-1.8,0-3.2,0-3.6-0.5c-21.6,37.4-39.2,74.8-52.3,111.7
	c-1.8,5.4-5,9.5-9.5,12.2c-4.5,2.7-9.5,4.1-15.3,4.1c-4.1,0-8.6-0.9-12.2-2.3c-9-2.7-16.2-8.1-22.1-15.8s-7.2-15.8-4.1-24.3
	c5.9-16.7,12.6-35.1,21.2-55.4c8.1-20.3,18-41.9,28.4-64.9c-10.4-3.6-20.7-6.8-30.6-9c-10.4-2.3-19.8-4.5-29.3-6.3h-1.8
	c-27-5.9-55-9.5-84.2-11.3c-12.6,17.6-25.2,35.1-37.8,51.8c-12.6,16.7-25.2,33.8-37.8,50.9c-11.3,15.3-22.5,30.6-34.2,45.9
	c-11.3,15.3-22.5,30.6-33.3,45.9c-1.4,1.8-3.6,3.6-6.8,5.9c-3.2,2.3-7.2,3.2-12.2,3.2c-2.3,0-4.1,0-5.4-0.5
	c-4.5-0.9-9.5-2.7-15.3-5.4c-5.4-2.7-10.8-6.3-15.8-9.9c-5-4.1-9.9-8.1-14-12.6c-4.1-4.5-6.8-9-8.1-14c-2.7-9-1.4-16.7,5-21.6
	c9.5-9.5,19.8-19.8,30.2-31.1c10.4-11.3,20.7-23,31.5-35.1c10.4-12.2,20.7-24.8,31.5-37.4c10.4-12.6,20.3-24.8,30.2-36.5
	c-42.8,1.4-76.6,4.5-101.4,9c-24.8,4.5-38.7,9.5-41.9,14.9c-1.8,2.3-4.5,4.5-8.1,7.2s-9.5,3.6-18,3.2c-4.1-0.5-8.6-1.4-13.5-3.2
	c-5-1.8-9.9-3.6-14.4-6.3c-4.5-2.7-8.6-5.9-12.6-9c-3.6-3.2-6.3-7.2-7.7-11.3c-3.2-7.7-1.8-14.9,3.6-21.2c8.6-9,22.1-16.7,40.1-22.1
	c18.5-5.4,39.2-9.5,62.6-12.2s48.6-4.1,75.7-4.1c26.6,0,53.2,0.5,78.4,1.4c9-11.3,16.2-20.7,22.1-28.4c5.9-7.7,9.5-12.6,11.3-15.3
	l5.9-8.1c2.3-2.7,3.6-5,4.1-6.3l-3.6,1.8c-18.9,5.9-37.4,13.5-56.3,23c-5,2.3-9.9,2.7-15.3,2.3c-5.4-0.9-10.4-2.3-15.3-5
	c-5-2.3-9-5.4-13.1-9s-6.8-7.2-8.6-11.3c-2.7-5.9-3.2-11.7-1.4-17.1c1.8-5.4,5.9-9.5,11.3-12.2c12.6-5.9,25.2-11.3,36.5-15.8
	c11.7-4.5,23.4-9,34.7-12.6l9-2.7c9-3.2,18.9-6.3,29.7-8.6c10.4-2.7,20.7-3.2,31.1-1.4c12.6,1.8,21.6,5.4,27.5,11.3
	c5.9,5.9,9.9,10.8,12.2,15.8c2.7,5.9,3.6,11.7,3.6,18s-0.9,12.2-2.3,18.5c-1.4,5.9-3.6,12.2-6.3,18c-2.7,5.9-5.4,11.3-8.6,15.8
	l-24.3,36c18,1.8,33.3,3.6,45.9,5c12.6,1.8,20.7,3.2,24.8,4.1c9.9,2.7,20.3,5,31.5,8.1c10.8,2.7,22.1,6.3,32.9,10.8
	c18.5-33.3,39.2-65.3,62.6-96.4c23.4-31.1,49.5-58.1,78.8-81.1c4.5-3.6,10.4-5.4,17.1-5.9c6.8-0.5,13.5,0.5,20.3,2.3
	c6.8,1.8,13.1,4.5,18.9,7.7s10.4,6.8,13.1,9.9C-1530-836.1-1528.2-830.7-1528.7-825.3z"/>
<text transform="matrix(1 0 0 1 3562.9385 1551.3048)" font-family="'ArialMT'" font-size="139.6396">Health Fair</text>
<g>
	<path fill="#F25042" d="M2170.8-384.4H2137v-41h-65.3v41h-34.2v-109.5h34.2v40.1h65.3v-40.1h33.8V-384.4z"/>
	<path fill="#F25042" d="M2300.1-412.8l-22.1,28.4h-96.8v-109.5h118.9l-22.1,28.4h-63.1v11.7h79.7l-22.1,28.4h-57.2v13.1h84.7
		V-412.8z"/>
	<path fill="#F25042" d="M2353.2-384.4l20.7-28.4h45.5L2391-452l-49.5,67.6h-41.9l70.3-97.3c2.3-3.2,5.4-5.9,9.5-8.6
		c4.5-2.7,8.6-4.1,12.6-4.1c4.1,0,8.6,1.4,12.6,4.1c3.6,2.3,6.8,5,9,8.6l68.5,97.3H2353.2z"/>
	<path fill="#F25042" d="M2555.9-412.8h-40.1v-81.1H2482v109.5h65.8c-0.5-1.4-0.9-2.7-1.4-4.1c-1.8-7.7,0.5-15.3,5.9-20.7
		C2553.2-410.5,2554.6-411.9,2555.9-412.8z"/>
	<path fill="#F25042" d="M2581.6-493.8l-22.1,28.4h45v42.8c3.2-0.5,6.3-1.4,9.9-1.8c8.1-1.4,16.2-2.3,24.3-3.2v-37.8h32.9l22.1-28.4
		H2581.6z"/>
	<path fill="#F25042" d="M2801.4-493.8v40.1h-65.3v-40.1h-33.8v68.5c2.7,1.4,5.4,3.2,7.7,5c4.1,3.6,6.8,8.6,7.7,14
		c0.5,2.7,0.5,5.9,0,9.5v0.5c0.5,0,0.9,0.5,1.4,0.5c2.3-0.9,5-1.4,7.2-1.8c1.8-0.5,3.6-0.5,5.4-0.5c1.8,0,3.2,0,5,0.5v-27h65.3v23.9
		c2.3-0.9,4.5-1.4,6.8-1.8c1.4,0,2.3-0.5,3.6-0.5c5,0,9.5,1.4,13.5,3.6c2.7,1.8,5.4,3.6,7.7,6.3h0.9h0.9c0.5,0,0.9,0,0.9,0v-100.5
		L2801.4-493.8L2801.4-493.8z"/>
</g>
<text transform="matrix(1 0 0 1 3745.0762 -993.287)" font-family="'TheHeartofEverythingDemo'" font-size="246.9761">Fair</text>
<g>
	<text transform="matrix(1 0 0 1 487.5217 -552.6937)" font-family="'PlicataPERSONALUSEONLY'" font-size="246.9761">Health</text>
</g>
<g>
	<text transform="matrix(1 0 0 1 786.3481 -389.7833)" font-family="'PlicataPERSONALUSEONLY'" font-size="246.9761">Fair</text>
</g>
<path fill="#F25042" d="M1618.5,3105.7c1.8,2.3,2.7,4.1,2.7,5.9s0,3.2-0.5,4.1c-0.9,4.1-3.6,6.8-8.1,8.1c-1.4,0.5-2.7,0.9-4.1,0.9
	c-0.9,0-1.4,0-1.8-0.5c-9.9,17.6-18,34.7-24.3,51.8c-0.9,2.3-2.3,4.5-4.5,5.9c-2.3,1.4-4.5,1.8-7.2,1.8c-1.8,0-4.1-0.5-5.9-0.9
	c-4.1-1.4-7.7-3.6-10.4-7.2c-2.7-3.6-3.2-7.2-1.8-11.3c2.7-7.7,5.9-16.2,9.9-25.7c4.1-9.5,8.1-19.4,13.1-30.2
	c-5-1.8-9.5-3.2-14.4-4.1c-5-1.4-9.5-2.3-13.5-3.2h-0.9c-12.6-2.7-25.7-4.5-39.2-5.4c-5.9,8.1-11.7,16.2-17.6,23.9
	c-5.9,7.7-11.7,15.8-17.6,23.4c-5.4,7.2-10.4,14.4-15.8,21.2c-5.4,7.2-10.4,14.4-15.8,21.2c-0.5,0.9-1.8,1.8-3.2,2.7
	c-1.4,0.9-3.2,1.4-5.4,1.4c-0.9,0-1.8,0-2.3-0.5c-2.3-0.5-4.5-1.4-7.2-2.3c-2.7-1.4-5-2.7-7.2-4.5c-2.3-1.8-4.5-3.6-6.3-5.9
	s-3.2-4.5-3.6-6.3c-1.4-4.5-0.5-7.7,2.3-9.9c4.5-4.5,9-9.5,14-14.4c5-5,9.9-10.8,14.4-16.2c5-5.9,9.9-11.3,14.4-17.1
	c5-5.9,9.5-11.3,14-17.1c-19.8,0.5-35.6,2.3-46.8,4.1c-11.3,2.3-18,4.5-19.4,6.8c-0.9,0.9-2.3,2.3-3.6,3.2c-1.8,1.4-4.5,1.8-8.1,1.4
	c-1.8,0-4.1-0.5-6.3-1.4c-2.3-0.9-4.5-1.8-6.8-3.2c-2.3-1.4-4.1-2.7-5.9-4.1s-2.7-3.2-3.6-5.4c-1.4-3.6-0.9-6.8,1.8-9.9
	c4.1-4.1,10.4-7.7,18.5-10.4c8.6-2.7,18-4.5,29.3-5.9c11.3-1.4,22.5-1.8,35.1-1.8s24.8,0,36.5,0.5c4.1-5.4,7.7-9.5,10.4-13.1
	c2.7-3.6,4.5-5.9,5.4-7.2l2.7-3.6c0.9-1.4,1.8-2.3,1.8-3.2l-1.8,0.9c-8.6,2.7-17.6,6.3-26.1,10.8c-2.3,0.9-4.5,1.4-7.2,0.9
	c-2.3-0.5-5-0.9-7.2-2.3c-2.3-1.4-4.1-2.7-5.9-4.1c-1.8-1.8-3.2-3.2-4.1-5.4c-1.4-2.7-1.4-5.4-0.5-8.1c0.9-2.3,2.7-4.5,5.4-5.9
	c5.9-2.7,11.7-5.4,17.1-7.2c5.4-2.3,10.8-4.1,16.2-5.9l4.1-1.4c4.5-1.4,9-2.7,13.5-4.1s9.5-1.4,14.4-0.5c5.9,0.9,9.9,2.7,12.6,5.4
	c2.7,2.7,4.5,5,5.4,7.2c1.4,2.7,1.8,5.4,1.8,8.1s-0.5,5.9-0.9,8.6c-0.5,2.7-1.8,5.4-2.7,8.1c-1.4,2.7-2.7,5-4.1,7.2l-11.3,16.7
	c8.6,0.9,15.3,1.8,21.2,2.3c5.9,0.9,9.5,1.4,11.3,1.8c4.5,1.4,9.5,2.3,14.4,3.6c5,1.4,10.4,3.2,15.3,5c8.6-15.3,18.5-30.6,29.3-45
	c10.8-14.4,23-27,36.5-37.8c2.3-1.8,5-2.7,8.1-2.7c3.2,0,6.3,0,9.5,0.9c3.2,0.9,5.9,2.3,8.6,3.6c2.7,1.4,5,3.2,5.9,4.5
	c2.3,2.3,3.2,5,3.2,7.2c-0.5,2.3-1.4,4.5-3.2,5.9c-13.1,12.2-24.8,25.2-36.5,39.2C1638.3,3077.3,1628,3091.3,1618.5,3105.7z"/>
<path d="M1680.7,2645.8c5-0.5,9.5,0,14.9,0.9c5,0.9,9.5,2.3,13.5,4.1s7.2,4.5,9.5,7.2c2.3,3.2,3.2,6.3,2.7,10.4
	c-0.5,3.2-1.8,6.3-4.1,10.4c-2.3,4.1-5.9,7.7-11.3,11.7c-5,3.6-11.7,7.2-20.3,10.4c-8.1,3.2-18.5,5.4-31.1,6.8
	c-0.5,3.2-0.5,5.9,0.5,8.1c0.5,2.3,2.3,4.1,4.5,4.5c5.4,2.3,10.8,2.7,17.1,1.8c5.9-1.4,12.2-3.6,18-6.8c5.9-3.2,11.7-7.2,17.1-11.7
	c5.4-4.5,10.4-8.6,14.9-13.1c2.3-2.3,4.5-3.6,6.8-4.1c2.3-0.5,4.1-0.5,5.4,0.5c1.4,0.9,1.8,2.3,1.8,4.5c0,2.3-1.4,5-4.1,8.1
	c-4.5,5.4-9.9,10.8-16.7,16.7c-6.8,5.4-14,10.8-21.6,14.9c-8.1,4.5-16.2,8.1-24.8,10.4c-8.6,2.3-17.6,3.2-26.6,2.3
	c-3.6-0.5-7.2-1.4-10.8-3.2c-3.6-1.4-6.8-3.6-9.5-6.8c-2.7-3.2-5-6.8-6.8-11.3c-1.4-4.5-1.8-9.9-1.4-16.2s3.2-13.1,6.8-19.8
	c4.1-6.8,9-13.1,14.9-18.9c5.9-5.9,12.6-10.8,19.8-14.4C1666.7,2648.5,1673.5,2646.2,1680.7,2645.8z M1682,2668.8
	c-1.8,0.5-4.1,1.4-5.9,2.7c-2.3,1.4-4.1,3.2-5.9,5.4c-1.8,2.3-4.1,4.5-5.4,7.2c-1.8,2.7-3.2,5.4-5,8.1c7.7-1.4,14-3.6,19.4-6.8
	c5.4-3.2,9-6.3,11.3-9c2.3-2.7,2.7-5.4,1.8-6.8C1691.5,2668.3,1687.4,2667.4,1682,2668.8z"/>
<path d="M1797.4,2645.8c7.2-0.5,13.1,0.9,18.5,4.5c5.4,3.2,9,8.1,11.3,13.5c2.3-2.3,4.5-4.5,6.8-6.3c2.3-1.8,4.1-3.2,5.9-4.5
	c3.6-2.3,7.2-3.6,10.8-4.1c4.1-0.5,7.2-0.5,10.4,0c3.2,0.5,5.9,1.8,7.7,3.6c1.8,1.8,2.7,4.1,2.3,6.8c0,1.8-1.4,4.1-3.6,7.2
	c-2.3,3.2-5,6.3-8.1,9.9c-3.2,3.6-6.8,7.2-10.4,10.8c-3.6,3.6-6.8,7.2-9.9,9.9s-5.4,5.9-7.2,8.1c-1.8,2.3-2.3,3.6-1.8,4.5
	c1.4,1.8,3.6,1.8,6.8,0.9s6.8-2.7,10.8-5c4.1-2.3,7.7-5,11.3-8.1c3.6-3.2,6.8-5.4,8.6-7.7c2.3-2.3,4.1-3.6,6.3-4.5
	c1.8-0.9,3.6-0.9,4.5,0s1.8,2.3,1.8,4.1s-0.9,4.5-2.7,7.2c-1.4,1.8-3.6,4.5-6.3,7.7c-2.7,3.2-6.3,6.3-9.9,9.5
	c-4.1,3.2-8.1,6.8-12.6,9.9s-9,6.3-13.5,8.6c-4.5,2.7-8.6,4.5-12.6,6.3c-4.1,1.4-7.7,2.3-10.4,1.8c-6.8-0.5-12.2-2.7-16.2-5.9
	s-6.3-7.2-6.8-11.7c-5.9,4.1-12.2,7.7-18.5,10.8c-6.3,3.6-12.6,5.9-18.9,7.7c-5.9,1.8-11.7,2.3-16.7,1.4c-5-0.9-9-3.6-12.2-8.1
	c-3.6-5.4-5.4-11.3-5.4-17.6s1.4-12.6,4.1-18.9c2.7-6.3,6.3-12.6,11.3-18.5c5-5.9,10.8-11.3,17.6-16.2c6.8-5,14-8.6,22.1-12.2
	C1780.7,2648.5,1788.8,2646.7,1797.4,2645.8z M1802.3,2694.9c0.5-1.4,1.8-2.7,3.2-4.5c1.4-1.8,2.7-4.1,4.1-6.3
	c0.9-2.3,1.8-4.5,1.8-6.8c0-2.3-1.4-4.1-3.6-5.4c-2.7-1.8-5.9-1.8-9.9-0.9c-4.1,0.9-7.7,2.7-12.2,5.4c-4.1,2.7-8.1,5.9-11.7,9.5
	c-3.6,3.6-6.8,7.2-9.5,10.8c-2.3,3.6-4.1,7.2-5,10.4c-0.9,3.2,0,5.9,2.3,7.2c1.8,1.4,4.1,1.8,6.8,0.9c3.2-0.9,6.3-2.3,9.9-4.1
	c3.6-1.8,7.7-4.5,11.7-7.2C1794.2,2700.7,1798.3,2697.6,1802.3,2694.9z"/>
<path d="M1923,2615.2c1.8-1.4,5-2.7,8.6-3.6c3.6-0.9,7.7-1.4,11.3-1.8c3.6,0,7.2,0.5,9.9,0.9c2.7,0.9,4.5,2.3,5,4.1
	c0,0.9-0.9,3.2-2.7,6.3c-1.8,3.2-4.5,7.2-8.1,11.7c-3.2,4.5-7.2,9.9-11.3,15.3c-4.1,5.4-8.6,11.3-13.1,17.1s-8.6,11.7-12.6,17.1
	c-4.1,5.9-7.7,10.8-10.4,15.8c-3.2,5-5,9-6.8,12.6c-1.4,3.6-1.8,5.9-0.5,7.7c0.9,1.4,3.2,1.8,6.8,0.5s7.2-3.2,11.7-5.9
	c4.5-2.7,9.5-6.3,14.4-10.4c5.4-4.1,9.9-8.6,14.9-13.1c3.2-3.2,5.9-5,8.1-5.9c2.3-0.9,4.5-0.9,5.4,0.5c1.4,0.9,1.8,2.7,1.4,5.4
	s-1.8,5.4-4.5,9c-2.7,3.6-6.3,7.2-10.8,11.7c-4.5,4.5-9.5,8.6-14.4,12.6c-5,4.1-9.9,7.7-14.9,10.8c-5,3.2-8.6,5.4-11.7,6.3
	c-5.9,1.8-11.7,2.7-16.7,3.2c-5.4,0-9.9-0.5-14-1.8c-4.1-1.4-7.2-3.2-9.9-5.9c-2.3-2.7-3.6-5.9-3.6-9.5c0-4.5,1.4-9.9,4.1-16.2
	c2.7-6.8,5.9-14,10.4-21.2c4.1-7.7,9-15.3,14-23.4c5.4-8.1,10.4-15.3,15.3-22.1s9.9-12.6,14.4-17.6
	C1916.7,2620.6,1920.3,2617.4,1923,2615.2z"/>
<path d="M1956.4,2647.1c2.3-0.9,5-2.3,8.1-3.2c3.2-1.4,6.8-2.3,10.4-3.6c3.6-4.1,6.8-7.7,9.9-10.8s5.9-5.4,8.1-6.8
	c9-5.4,16.7-9.5,22.1-11.3c5.4-1.8,9-0.5,10.8,3.6c0.5,0.9-0.5,2.7-1.8,5c-1.4,2.7-3.6,5.9-6.8,9.5c6.3-1.4,11.3-1.8,15.8-2.3
	s7.2,0,8.1,0.5c0.9,0.5,1.8,1.8,2.7,3.2c0.9,1.4,0.9,3.2,0.9,5.4c0,1.8-0.9,4.1-2.3,6.3c-1.4,2.3-3.6,4.5-6.8,6.3
	c-1.4,0.9-3.6,1.8-6.3,2.7c-2.7,0.9-5.9,1.4-9,1.8c-3.6,0.5-7.2,0.9-11.3,1.8c-4.1,0.5-8.1,0.9-12.2,1.4c-5,6.3-9.5,12.6-14,18.9
	c-4.5,6.3-8.6,12.2-11.7,17.6c-3.2,5.4-5.9,10.4-7.2,14.4c-1.8,4.1-1.8,7.2-0.5,8.6c2.3,3.2,5.4,4.1,9.9,2.7c4.5-1.4,9-3.6,13.5-6.8
	c5-3.2,9.5-7.2,14-11.7c4.5-4.5,8.1-8.1,10.8-10.8c2.7-3.2,5-4.5,7.2-5c2.3-0.5,4.1,0,5.4,1.4c1.4,1.4,1.4,3.2,1.4,5.9
	c-0.5,2.3-1.8,5-4.1,7.7c-2.3,2.7-5.9,6.3-9.9,10.8c-4.1,4.5-8.6,8.6-13.5,13.1c-4.5,4.5-9.5,8.1-14.4,11.7s-9,5.9-12.6,6.8
	s-8.1,1.8-13.1,2.3c-5,0.5-9.9,0-14.4-0.9s-8.6-2.7-12.2-5.4c-3.2-2.7-5.4-6.3-5.4-11.3c-0.5-3.2,0.5-6.8,2.3-11.7
	s4.5-10.4,7.7-16.2c3.2-5.9,6.8-12.2,11.3-18.9c4.1-6.8,8.6-13.1,13.1-19.4l-7.2,0.9c-2.3,0.5-3.6,0-4.1-0.9c-0.5-0.9-0.5-2.3,0-3.6
	c0.5-1.4,1.4-3.2,3.2-4.5C1952.8,2649.8,1954.6,2648.5,1956.4,2647.1z"/>
<path d="M2105,2617.4c-1.4,3.6-4.1,8.1-8.6,13.1c-4.5,5-9.5,9.9-14.9,15.3c-5.4,5.4-10.8,11.3-16.7,17.1c-5.9,5.9-10.4,12.2-14,18.5
	c9.5-9.9,18.5-17.6,27.5-22.5c9-5,16.7-8.6,23.4-9.9c6.8-1.4,12.6-0.9,17.6,0.9c4.5,2.3,7.7,5.4,9.5,9.9c0.9,3.2,0.5,6.3-1.4,9.9
	c-1.8,3.6-4.5,7.7-7.7,11.7c-3.2,4.1-6.8,8.1-10.8,12.2s-7.7,7.7-10.8,11.3c-3.2,3.6-5.9,6.3-7.7,9c-1.8,2.7-2.3,4.5-1.8,5.9
	c0.5,0.5,1.8,0.5,3.6,0c1.8-0.9,4.5-1.8,7.2-3.6c2.7-1.8,5.9-3.6,9.5-5.9c3.2-2.3,6.8-4.5,9.9-6.8c3.2-2.3,5.9-4.5,8.6-6.8
	s4.5-4.1,5.9-5.9c2.3-2.3,4.1-4.1,6.3-4.5c1.8-0.5,3.6-0.5,4.5,0.5c0.9,0.9,1.4,2.3,1.4,4.5s-1.8,4.5-4.1,7.7
	c-2.3,3.2-5.9,6.8-10.4,11.7c-4.5,5-9,9.5-14.4,14.4c-5,5-10.4,9-15.3,12.6c-5,3.6-9.5,5.4-13.5,5.9c-3.6,0.5-7.7,0.5-12.2-0.5
	c-4.1-0.9-8.1-2.3-11.3-4.5c-3.6-2.3-5.9-5-7.7-8.6c-1.8-3.6-2.3-8.1-1.4-13.5c0.5-2.7,1.8-5.9,3.6-9c1.8-3.2,4.5-6.3,6.8-9.5
	c2.7-3.2,5.4-5.9,8.1-9c2.7-3.2,5.4-5.4,7.7-7.7c2.3-2.3,3.6-4.1,5-5.9c1.4-1.4,1.4-2.7,0.9-3.2c-0.9-0.5-3.2,0.5-6.3,2.7
	c-3.2,2.3-7.2,5.4-11.7,9.5c-4.5,4.1-9.5,8.6-14.9,13.5c-5.4,5-10.4,9.9-15.3,14.9c-5,5-9.5,9.5-14,13.5c-4.1,4.5-7.7,7.7-9.9,9.9
	c-1.8,1.8-4.1,3.2-6.8,4.1s-5.9,1.8-9,1.8s-6.3-0.5-9-0.9c-2.7-0.5-5-2.3-5.9-4.5c-0.9-1.4,0.5-5.4,3.6-11.3
	c3.2-5.9,7.7-13.5,13.1-21.6c5.4-8.1,11.7-17.6,18.5-27c6.8-9.5,13.5-18.5,19.8-27c6.3-8.6,12.2-15.8,17.6-22.1
	c5.4-6.3,9-10.4,11.3-11.7c3.6-2.3,7.2-4.1,11.7-5.4c4.5-0.9,8.6-1.4,12.2-1.4c3.6,0.5,6.8,0.9,9,2.3
	C2105,2612.5,2105.9,2614.7,2105,2617.4z"/>
<path fill="#020826" d="M2009.1,3031.4c0.5,1.4,0.5,3.2,0,5.4c-0.5,2.3-2.3,5-5.4,7.2c-2.3,1.8-5.4,3.2-8.6,3.6
	c-3.2,0.5-6.8,0.5-10.4,0.5c-3.6-0.5-7.2-0.9-10.4-1.8c-3.6-0.9-6.3-2.3-9-3.6c-4.5,0.5-8.6,0.9-13.5,1.4c-4.5,0.5-9,0.9-13.1,1.4
	l-11.3,1.4c-9.9,0.9-19.4,1.8-29.3,3.2c-9.9,1.4-19.8,2.7-29.7,4.5c-2.3,0.5-4.5,0.9-6.8,0.9c-2.3,0.5-4.5,0.9-6.8,1.4
	c4.5,1.4,8.1,3.6,10.8,5.9c2.7,2.7,4.1,5.4,4.1,7.7c0,2.7-0.9,5-2.7,6.8c-6.3,6.8-11.7,12.6-17.1,18.5c-5.4,5.9-10.8,11.7-15.8,17.1
	c20.7-1.8,41.9-3.6,63.5-4.5c2.7,0,5.9,0.5,9.5,0.9c3.6,0.5,7.2,1.4,10.4,2.7c3.2,1.4,6.3,3.2,8.6,5c2.3,1.8,3.6,4.5,3.6,6.8
	c0.5,6.3-4.5,9.5-15.3,9.9c-17.6,0.9-35.6,1.8-52.7,3.6c-17.6,1.4-34.7,3.6-52.3,5.9c-5.9,7.7-11.7,15.3-17.6,23.4
	c-5.9,8.1-11.3,17.1-17.6,27c-2.3,3.6-5.9,5.4-10.8,5.4h-0.5c-3.2,0-7.2-1.4-11.3-3.2c-4.1-1.8-7.2-4.5-9-7.7
	c-2.3-3.6-2.3-7.2,0.5-10.8c3.2-5,5.9-9.5,8.6-14c2.7-4.5,5.4-9,8.6-13.1h-0.9c-3.2,0-6.3-0.5-9.9-0.9c-3.6-0.5-6.8-1.4-9.9-2.7
	s-5.9-2.7-8.1-4.5c-2.3-1.8-3.6-3.6-3.6-5.9c0-0.5,0-1.4,0-2.3c0-0.9,0.5-1.8,1.4-3.2c0.9-0.9,1.8-2.3,3.6-3.2
	c1.4-0.9,3.6-1.8,6.8-2.3c14.4-2.3,28.4-4.5,42.3-6.8c6.8-9.5,14.4-18.5,22.1-27.5s16.2-18.5,25.7-28.8c-7.7,1.8-15.3,3.2-23,4.1
	c-7.7,1.4-15.3,1.8-23.4,1.8c-4.5,0-9-0.5-13.5-0.9c-0.9,0-2.7-0.5-5.9-0.9c-2.7-0.5-5.9-1.4-8.6-2.3c-3.2-1.4-5.9-2.7-8.6-4.5
	c-2.7-1.8-4.1-4.5-5-7.2c-0.9-3.6,0-6.8,2.7-9.5c1.8-2.3,4.5-3.6,7.7-4.5c3.2-0.9,7.2-0.9,10.8-0.5c5.4,0.5,10.8,0.5,16.7-0.5
	c5.4-0.9,11.3-2.3,16.7-3.6c1.8-0.5,3.6-0.9,5.4-0.9c1.8-0.5,3.2-0.9,5.4-0.9c6.8-1.4,13.1-2.7,19.8-4.1c6.8-1.4,13.5-2.3,20.3-3.6
	c23.4-3.6,47.7-6.8,72.1-9c1.8,0,3.6-0.5,5.4-0.5c1.8,0,3.6-0.5,5.4-0.5c9-0.9,18.9-1.8,28.4-2.3c9.9-0.5,18.9,0.5,27.5,2.3
	c0.5,0,1.8,0.5,4.1,1.4c2.3,0.5,5,1.8,7.7,3.2c2.7,1.4,5.4,3.2,7.7,5.4C2006.8,3026,2008.2,3028.2,2009.1,3031.4z"/>
<path d="M2013.6,2512.5c7.2-0.5,13.1,0.9,18.5,4.5c5.4,3.6,9,8.1,11.3,13.5c2.3-2.3,4.5-4.5,6.8-6.3s4.1-3.2,5.9-4.5
	c3.6-2.3,7.2-3.6,10.8-4.1c4.1-0.5,7.2-0.5,10.4,0c3.2,0.5,5.9,1.8,7.7,3.6s2.7,4.1,2.3,6.8c0,1.8-1.4,4.1-3.6,7.2
	c-2.3,3.2-5,6.3-8.1,9.9c-3.2,3.6-6.8,7.2-10.4,10.8c-3.6,3.6-6.8,7.2-9.9,9.9c-3.2,2.7-5.4,5.9-7.2,8.1c-1.8,2.3-2.3,3.6-1.8,4.5
	c1.4,1.8,3.6,1.8,6.8,0.9c3.2-0.9,6.8-2.7,10.8-5c4.1-2.3,7.7-5,11.3-8.1c3.6-2.7,6.8-5.4,8.6-7.7c2.3-2.3,4.1-3.6,6.3-4.5
	c1.8-0.9,3.6-0.9,4.5,0s1.8,2.3,1.8,4.1s-0.9,4.5-2.7,7.2c-1.4,1.8-3.6,4.5-6.3,7.7c-2.7,3.2-6.3,6.3-9.9,9.5
	c-4.1,3.2-8.1,6.8-12.6,9.9c-4.5,3.2-9,6.3-13.5,8.6c-4.5,2.7-8.6,4.5-12.6,6.3c-4.1,1.4-7.7,2.3-10.4,1.8
	c-6.8-0.5-12.2-2.7-16.2-5.9c-4.1-3.2-6.3-7.2-6.8-11.7c-5.9,4.1-12.2,7.7-18.5,10.8s-12.6,5.9-18.9,7.7c-5.9,1.8-11.7,2.3-16.7,1.4
	s-9-3.6-12.2-8.1c-3.6-5.4-5.4-11.3-5.4-17.6c0-6.3,1.4-12.6,3.6-18.9c2.7-6.3,6.3-12.6,11.3-18.5c5-5.9,10.8-11.3,17.6-16.2
	c6.8-5,14-8.6,22.1-12.2C1996.9,2514.7,2005,2512.9,2013.6,2512.5z M2018.5,2561.6c0.5-1.4,1.8-2.7,3.2-4.5c1.4-1.8,2.7-4.1,4.1-6.3
	c0.9-2.3,1.8-4.5,1.8-6.8c0-2.3-1.4-4.1-3.6-5.4c-2.7-1.8-5.9-1.8-9.9-0.9s-7.7,2.7-12.2,5.4c-4.1,2.7-8.1,5.9-11.7,9.5
	c-3.6,3.6-6.8,7.2-9.5,10.8c-2.3,3.6-4.1,7.2-5,10.4c-0.9,3.2,0,5.9,2.3,7.2c1.8,1.4,4.1,1.8,6.8,0.9c3.2-0.9,6.3-2.3,9.9-4.1
	s7.7-4.5,11.7-7.2C2010.4,2567.9,2014.5,2564.3,2018.5,2561.6z"/>
<path d="M2145.5,2528.7c0,2.3-1.4,5.4-3.6,9.5c-2.7,3.6-5.9,7.7-9.5,11.7c-3.6,4.1-7.2,8.1-11.3,12.2c-3.6,4.1-6.8,7.7-9.5,10.8
	c-2.3,3.2-4.1,5.9-4.1,8.1c-0.5,2.3,1.4,3.2,4.5,3.2s6.8-0.9,10.4-3.2c4.1-2.3,7.7-4.5,11.7-7.7c4.1-3.2,7.7-5.9,10.8-9
	c3.2-3.2,5.9-5.4,8.1-7.7c1.8-1.8,3.6-3.2,5.4-3.2s3.2,0,4.1,1.4c0.9,0.9,1.4,2.7,0.9,5c-0.5,2.3-1.8,5-5,8.1
	c-3.2,3.6-7.7,8.1-12.6,13.1c-5,5-10.8,9.5-17.6,13.5c-6.3,4.1-13.5,7.7-21.2,10.4c-7.7,2.7-15.3,3.6-23.4,3.2
	c-6.3-0.5-10.8-2.3-13.1-5.9c-2.3-3.6-3.2-7.7-2.3-12.6c0.5-5,2.7-10.4,5.9-16.7c3.2-6.3,6.8-12.2,11.3-18
	c4.5-5.9,9.5-11.3,14.4-16.2c5.4-5,10.4-9.5,15.3-12.6c2.3-1.4,5-2.7,8.6-3.2c3.2-0.5,6.8-0.9,9.9-0.5c3.2,0.5,5.9,0.9,8.1,2.3
	C2144.2,2525.5,2145.5,2526.9,2145.5,2528.7z M2155.5,2483.2c2.3,0.9,4.1,2.7,6.3,5.4c1.8,2.7,3.2,5.9,4.1,9c0.5,3.2,0,6.8-1.4,9.9
	c-1.4,3.2-4.5,5.9-8.6,8.1c-4.5,2.3-8.6,3.2-12.6,2.7c-4.1-0.5-7.2-1.8-9.9-3.6s-5-5-6.3-8.1c-1.4-3.6-1.8-7.2-0.9-10.8
	c0.5-4.1,1.8-7.2,3.6-9.5s4.1-3.6,6.8-4.5c2.7-0.9,5.9-1.4,9-0.9C2148.7,2480.9,2151.9,2481.8,2155.5,2483.2z"/>
<path d="M2182.5,2517.4c5.4-1.8,10.4-2.3,14.4-1.8c4.1,0.5,7.2,1.8,9,3.6c4.1-3.6,7.7-6.8,11.3-9.5c3.6-2.3,6.8-4.1,9.5-4.1
	c4.1-0.5,7.7,0,10.8,2.3c3.2,1.8,5.9,4.1,8.1,6.8c2.3,2.7,4.1,5,5.9,7.7c1.4,2.7,3.2,4.1,4.5,5c1.4,0.9,2.7,0.9,5,0.5
	c2.3-0.5,4.1-0.9,6.3-1.8c2.3-0.5,4.1-0.9,5.9-0.9s2.7,0.9,3.2,3.2c0.5,3.2,0,5.4-2.3,8.1c-2.3,2.3-5.4,4.5-9,5.9
	c-3.6,1.8-7.7,2.7-11.7,3.6s-7.2,0.9-9.9,0.9c-2.7,0-5-0.9-6.8-2.7c-1.8-1.4-4.1-3.2-5.9-4.5s-4.1-2.7-6.3-3.2
	c-2.3-0.9-5-0.5-8.1,0.5c-3.6,1.4-8.1,4.5-14,9.5c-5.9,5-13.1,12.6-21.2,23c-2.7,4.1-5.4,8.1-8.1,12.2c-2.7,4.1-5.4,7.7-7.2,10.8
	c-2.3,3.2-4.1,6.3-5.9,8.6c-1.8,2.3-2.7,4.1-3.6,5c-1.4,1.8-3.6,3.2-6.3,3.6c-2.7,0.5-5.9,0.5-8.6,0c-2.7-0.5-5.4-1.8-7.7-3.2
	c-2.3-1.4-3.6-3.2-4.1-5.4c-0.5-1.4,0.5-4.5,3.2-9c2.3-4.5,5.4-9.9,9-15.8c3.6-6.3,7.7-12.6,12.2-18.9c4.5-6.3,8.6-13.1,12.6-18.5
	c4.1-5.9,7.7-10.4,10.8-14.4C2179.3,2520.1,2181.6,2517.9,2182.5,2517.4z"/>
<g>
	<text transform="matrix(1 0 0 1 -2329.1619 -1885.1202)" font-family="'Harabara'" font-size="246.9761">Health</text>
</g>
<g>
	<text transform="matrix(1 0 0 1 -2179.7495 -1740.0973)" font-family="'Gigi-Regular'" font-size="96.9072">FAIR</text>
</g>
<text transform="matrix(1 0 0 1 3084.4158 -910.7024)" font-family="'MrDafoe-Regular'" font-size="246.9761">Fair</text>
<text transform="matrix(1 0 0 1 2356.1882 -865.6593)" font-family="'PlicataPERSONALUSEONLY'" font-size="246.9761">Fair</text>
<g>
	<path fill="#020826" d="M2700.1-402.9c0,0.5,0,1.8,0,2.7c0,0.9-0.9,2.3-2.7,3.6c-1.4,0.9-2.7,1.4-4.5,1.8c-1.8,0.5-3.6,0.5-5.4,0
		c-1.8,0-3.6-0.5-5.4-0.9c-1.8-0.5-3.2-0.9-4.5-1.8c-2.3,0-4.5,0.5-6.8,0.5c-2.3,0-4.5,0.5-6.8,0.9l-5.9,0.9
		c-5,0.5-9.9,0.9-14.9,1.8c-5,0.5-9.9,1.4-14.9,2.3c-1.4,0-2.3,0.5-3.6,0.5s-2.3,0.5-3.6,0.9c2.3,0.9,4.1,1.8,5.4,3.2
		c1.4,1.4,2.3,2.7,1.8,4.1c0,1.4-0.5,2.3-1.4,3.2c-3.2,3.2-5.9,6.3-9,9.5c-2.7,3.2-5.4,5.9-8.1,8.6c10.8-0.9,21.6-1.8,32.4-2.3
		c1.4,0,3.2,0,5,0.5c1.8,0.5,3.6,0.9,5.4,1.4c1.8,0.5,3.2,1.4,4.1,2.7c1.4,0.9,1.8,2.3,1.8,3.6c0.5,3.2-2.3,5-7.7,5
		c-9,0.5-18,0.9-27,1.8c-9,0.9-17.6,1.8-26.6,3.2c-3.2,4.1-5.9,7.7-9,12.2c-2.7,4.1-5.9,8.6-9,14c-1.4,1.8-3.2,2.7-5.4,2.7h-0.5
		c-1.8,0-3.6-0.5-5.9-1.4c-2.3-0.9-3.6-2.3-4.5-4.1c-0.9-1.8-0.9-3.6,0-5.4c1.4-2.7,3.2-5,4.5-7.2s2.7-4.5,4.1-6.8h-0.5
		c-1.4,0-3.2,0-5-0.5c-1.8-0.5-3.6-0.9-5-1.4c-1.4-0.5-2.7-1.4-4.1-2.3c-1.4-0.9-1.8-1.8-1.8-3.2c0-0.5,0-0.9,0-1.4
		c0-0.5,0.5-0.9,0.5-1.4c0.5-0.5,0.9-0.9,1.8-1.4c0.9-0.5,1.8-0.9,3.2-0.9c7.2-1.4,14.4-2.3,21.6-3.6c3.6-5,7.2-9.5,11.3-14
		c4.1-4.5,8.1-9.5,13.1-14.4c-4.1,0.9-7.7,1.4-11.7,2.3c-4.1,0.5-7.7,0.9-11.7,0.9c-2.3,0-4.5,0-6.8-0.5c-0.5,0-1.4-0.5-2.7-0.5
		c-1.4-0.5-2.7-0.5-4.5-1.4c-1.4-0.5-3.2-1.4-4.1-2.3c-0.9-0.9-2.3-2.3-2.3-3.6c-0.5-1.8,0-3.6,1.4-5c0.9-0.9,2.3-1.8,4.1-2.3
		c1.8-0.5,3.6-0.5,5.4-0.5c2.7,0.5,5.4,0.5,8.6-0.5c2.7-0.5,5.9-0.9,8.6-1.8c0.9,0,1.8-0.5,2.7-0.5s1.8-0.5,2.7-0.5
		c3.2-0.5,6.8-1.4,9.9-1.8c3.6-0.5,6.8-1.4,10.4-1.8c12.2-1.8,24.3-3.2,36.5-4.5c0.9,0,1.8,0,2.7,0s1.8,0,2.7-0.5
		c4.5-0.5,9.5-0.9,14.4-1.4c5-0.5,9.5,0,14,1.4c0.5,0,0.9,0.5,2.3,0.5s2.3,0.9,4.1,1.4c1.8,0.5,2.7,1.8,4.1,2.7
		C2699.2-406,2700.1-404.7,2700.1-402.9z"/>
	<path fill="#020826" d="M2701.9-382.1c3.6-0.5,6.8,0.5,9.5,2.3c2.7,1.8,4.5,4.1,5.9,6.8c1.4-1.4,2.3-2.3,3.2-3.2
		c0.9-0.9,2.3-1.8,3.2-2.3c1.8-0.9,3.6-1.8,5.4-2.3c1.8-0.5,3.6-0.5,5.4,0c1.8,0.5,2.7,0.9,4.1,1.8s1.4,2.3,1.4,3.6
		c0,0.9-0.9,2.3-1.8,3.6c-1.4,1.4-2.7,3.2-4.1,5c-1.8,1.8-3.2,3.6-5.4,5.4c-1.8,1.8-3.6,3.6-5,5c-1.4,1.8-2.7,3.2-3.6,4.1
		c-0.9,1.4-1.4,1.8-0.9,2.3c0.5,0.9,1.8,0.9,3.6,0.5s3.6-1.4,5.4-2.7c1.8-1.4,4.1-2.7,5.9-4.1c1.8-1.4,3.2-2.7,4.5-4.1
		c0.9-0.9,2.3-1.8,3.2-2.3c0.9-0.5,1.8-0.5,2.3,0c0.5,0.5,0.9,0.9,0.9,1.8c0,0.9-0.5,2.3-1.4,3.6c-0.5,0.9-1.8,2.3-3.2,4.1
		c-1.4,1.4-3.2,3.2-5,5c-1.8,1.8-4.1,3.2-6.3,5c-2.3,1.8-4.5,3.2-6.8,4.5s-4.5,2.3-6.3,3.2c-2.3,0.9-4.1,0.9-5.4,0.9
		c-3.6-0.5-6.3-1.4-8.1-2.7c-1.8-1.8-3.2-3.6-3.6-5.9c-3.2,1.8-6.3,4.1-9.5,5.4c-3.2,1.8-6.3,3.2-9.5,4.1c-3.2,0.9-5.9,0.9-8.6,0.5
		c-2.7-0.5-4.5-1.8-6.3-4.1c-1.8-2.7-2.7-5.9-2.7-9s0.5-6.3,1.8-9.9c1.4-3.2,3.2-6.3,5.9-9.5c2.7-3.2,5.4-5.9,9-8.1
		s7.2-4.5,11.3-6.3C2693.3-380.8,2697.4-381.7,2701.9-382.1z M2704.1-356.9c0.5-0.5,0.9-1.4,1.8-2.3c0.9-0.9,1.4-2.3,1.8-3.2
		c0.5-1.4,0.9-2.3,0.9-3.6c0-1.4-0.5-2.3-1.8-2.7c-1.4-0.9-3.2-0.9-5-0.5c-1.8,0.5-4.1,1.4-6.3,2.7c-2.3,1.4-4.1,3.2-5.9,5
		c-1.8,1.8-3.6,3.6-5,5.4c-1.4,1.8-2.3,3.6-2.3,5.4c-0.5,1.8,0,2.7,0.9,3.6c0.9,0.5,1.8,0.9,3.6,0.5c1.4-0.5,3.2-0.9,5-2.3
		c1.8-0.9,4.1-2.3,5.9-3.6C2700.1-354.2,2702.3-355.6,2704.1-356.9z"/>
	<path fill="#020826" d="M2769-373.6c0,1.4-0.5,2.7-1.8,5c-1.4,1.8-2.7,4.1-4.5,5.9c-1.8,2.3-3.6,4.1-5.9,6.3
		c-1.8,2.3-3.6,4.1-5,5.4c-1.4,1.8-1.8,3.2-2.3,4.1c0,0.9,0.5,1.4,2.3,1.4c1.8,0,3.2-0.5,5.4-1.8c1.8-0.9,4.1-2.3,5.9-4.1
		c1.8-1.4,3.6-3.2,5.4-4.5c1.8-1.4,3.2-2.7,4.1-4.1c0.9-0.9,1.8-1.4,2.7-1.8c0.9,0,1.8,0,2.3,0.5c0.5,0.5,0.5,1.4,0.5,2.7
		c0,1.4-0.9,2.7-2.3,4.1c-1.8,1.8-3.6,4.1-6.3,6.8c-2.7,2.7-5.4,5-9,6.8c-3.2,2.3-6.8,4.1-10.8,5.4c-4.1,1.4-7.7,1.8-11.7,1.4
		c-3.2-0.5-5.4-1.4-6.8-3.2c-1.4-1.8-1.8-4.1-1.4-6.3s1.4-5.4,2.7-8.6c1.8-3.2,3.6-6.3,5.9-9c2.3-3.2,5-5.9,7.2-8.6
		c2.7-2.7,5.4-4.5,7.7-6.3c1.4-0.9,2.7-1.4,4.5-1.4c1.8-0.5,3.6-0.5,5-0.5s3.2,0.5,4.1,0.9C2768.1-375.4,2769-374.5,2769-373.6z
		 M2773.9-396.5c0.9,0.5,2.3,1.4,3.2,2.7c0.9,1.4,1.8,2.7,1.8,4.5c0.5,1.8,0,3.2-0.5,5c-0.9,1.8-2.3,3.2-4.5,4.1
		c-2.3,0.9-4.5,1.4-6.3,1.4c-1.8,0-3.6-0.9-5-1.8c-1.4-0.9-2.7-2.3-3.2-4.1c-0.9-1.8-0.9-3.6-0.5-5.4c0.5-1.8,0.9-3.6,1.8-4.5
		c0.9-1.4,2.3-1.8,3.6-2.3s3.2-0.5,4.5-0.5C2770.3-397.9,2772.1-397.5,2773.9-396.5z"/>
	<path fill="#020826" d="M2787.9-379.4c2.7-0.9,5.4-1.4,7.2-0.9c2.3,0.5,3.6,0.9,4.5,1.8c1.8-1.8,4.1-3.6,5.9-5
		c1.8-1.4,3.6-1.8,5-2.3c2.3-0.5,4.1,0,5.4,0.9c1.8,0.9,3.2,2.3,4.1,3.6c1.4,1.4,2.3,2.7,2.7,4.1c0.5,1.4,1.4,2.3,2.3,2.7
		c0.5,0.5,1.4,0.5,2.7,0.5c0.9-0.5,2.3-0.5,3.2-0.9c0.9-0.5,1.8-0.5,2.7-0.5c0.9,0,1.4,0.5,1.8,1.4c0.5,1.4,0,2.7-1.4,4.1
		c-1.4,1.4-2.7,2.3-4.5,3.2c-1.8,0.9-4.1,1.4-5.9,1.8c-2.3,0.5-3.6,0.5-5,0.5s-2.7-0.5-3.6-1.4c-0.9-0.9-1.8-1.4-3.2-2.3
		c-0.9-0.9-1.8-1.4-3.2-1.8s-2.7-0.5-4.1,0.5c-1.8,0.5-4.1,2.3-7.2,5c-3.2,2.7-6.8,6.3-10.8,11.7c-1.4,2.3-2.7,4.1-4.1,6.3
		c-1.4,2.3-2.7,4.1-3.6,5.4c-1.4,1.8-2.3,3.2-3.2,4.1c-0.9,0.9-1.4,1.8-1.8,2.7c-0.9,0.9-1.8,1.8-3.2,1.8c-1.4,0.5-2.7,0.5-4.5,0
		c-1.4-0.5-2.7-0.9-4.1-1.4c-1.4-0.5-1.8-1.8-2.3-2.7c0-0.9,0.5-2.3,1.4-4.5c1.4-2.3,2.7-5,4.5-8.1c1.8-3.2,4.1-6.3,6.3-9.9
		c2.3-3.6,4.5-6.8,6.3-9.5c2.3-2.7,4.1-5.4,5.4-7.2C2786.1-378.1,2787-379,2787.9-379.4z"/>
</g>
<rect x="-2555.8" y="94.4" fill="#F25042" width="453.6" height="453.6"/>
<rect x="-2555.8" y="685.9" fill="#8C7851" width="453.6" height="453.6"/>
<rect x="-2555.8" y="1277.8" fill="#020826" width="453.6" height="453.6"/>
<circle fill="#020826" cx="-245.4" cy="-761" r="302.7"/>
<circle fill="#FFFFFF" cx="-191.4" cy="-761" r="273.4"/>
<path fill="#F25042" d="M1062.2,2883.6c3.6-0.5,7.7,0,11.7,0.9c4.1,0.9,7.7,1.8,10.4,3.2c3.2,1.4,5.4,3.6,7.2,5.9s2.7,5,2.3,8.1
	c-0.5,2.3-1.4,5-3.2,8.1c-1.8,3.2-4.5,6.3-8.6,9c-4.1,3.2-9.5,5.9-15.8,8.1s-14.4,4.1-24.3,5c-0.5,2.3-0.5,4.5,0,6.3
	c0.5,1.8,1.8,3.2,3.6,3.6c4.1,1.8,8.6,2.3,13.1,1.4s9.5-2.7,14-5.4c4.5-2.7,9-5.9,13.5-9c4.5-3.6,8.1-6.8,11.7-9.9
	c1.8-1.8,3.6-2.7,5.4-3.2c1.8-0.5,3.2-0.5,4.1,0.5c0.9,0.5,1.4,1.8,1.4,3.6s-1.4,3.6-3.2,6.3c-3.6,4.1-7.7,8.6-13.1,13.1
	c-5,4.5-10.8,8.1-17.1,11.7c-6.3,3.6-12.6,6.3-19.4,8.1c-6.8,1.8-14,2.7-20.7,1.8c-2.7-0.5-5.4-1.4-8.1-2.3
	c-2.7-1.4-5.4-2.7-7.7-5.4c-2.3-2.3-4.1-5.4-5-8.6c-1.4-3.6-1.8-7.7-0.9-12.6c0.5-5,2.3-10.4,5.4-15.8s6.8-10.4,11.7-14.9
	c4.5-4.5,9.9-8.1,15.3-11.3C1051.4,2885.9,1056.8,2884.1,1062.2,2883.6z M1063.6,2901.6c-1.4,0.5-3.2,1.4-5,2.3s-3.2,2.7-5,4.1
	c-1.4,1.8-3.2,3.6-4.5,5.9c-1.4,2.3-2.7,4.5-3.6,6.3c5.9-1.4,10.8-3.2,15.3-5.4c4.1-2.3,7.2-5,9-7.2c1.8-2.3,2.3-4.1,1.4-5.4
	C1070.3,2900.7,1068.1,2900.7,1063.6,2901.6z"/>
<path fill="#F25042" d="M1154.1,2883.6c5.4-0.5,10.4,0.9,14.4,3.6c4.1,2.7,7.2,6.3,9,10.8c1.8-1.8,3.6-3.6,5-5
	c1.8-1.4,3.2-2.7,4.5-3.6c2.7-1.8,5.4-2.7,8.6-3.2c3.2-0.5,5.9-0.5,8.1,0c2.3,0.5,4.5,1.4,5.9,2.7s2.3,3.2,1.8,5.4
	c0,1.4-0.9,3.2-2.7,5.9c-1.8,2.3-4.1,5-6.3,7.7c-2.7,2.7-5.4,5.4-8.1,8.6c-2.7,2.7-5.4,5.4-7.7,8.1c-2.3,2.3-4.1,4.5-5.4,6.3
	c-1.4,1.8-1.8,3.2-1.4,3.6c0.9,1.4,2.7,1.4,5.4,0.9c2.7-0.9,5.4-2.3,8.6-4.1c3.2-1.8,5.9-4.1,9-6.3c2.7-2.3,5.4-4.5,6.8-6.3
	c1.8-1.8,3.2-2.7,5-3.6c1.4-0.5,2.7-0.5,3.6,0s1.4,1.8,1.4,3.2c0,1.4-0.9,3.6-2.3,5.9c-0.9,1.4-2.7,3.6-5,5.9c-2.3,2.3-5,5-8.1,7.7
	c-3.2,2.7-6.3,5-9.9,7.7c-3.6,2.7-6.8,5-10.4,6.8c-3.6,1.8-6.8,3.6-9.9,5c-3.2,1.4-5.9,1.8-8.1,1.4c-5.4-0.5-9.5-1.8-12.6-4.5
	c-3.2-2.3-5-5.4-5.4-9c-4.5,3.2-9.5,5.9-14.4,8.6s-9.9,4.5-14.9,5.9c-4.5,1.4-9,1.8-13.1,0.9c-4.1-0.5-7.2-2.7-9.5-6.3
	c-2.7-4.1-4.1-8.6-4.1-13.5c0-5,0.9-9.9,3.2-14.9c2.3-5,5-9.9,9-14.4c4.1-4.5,8.6-9,13.5-12.6c5.4-3.6,10.8-6.8,17.1-9.5
	C1141,2885.9,1147.4,2884.1,1154.1,2883.6z M1157.7,2922.4c0.5-0.9,1.4-2.3,2.7-3.6c1.4-1.4,2.3-3.2,3.2-5c0.9-1.8,1.4-3.6,1.4-5.4
	c0-1.8-0.9-3.2-2.7-4.5c-2.3-1.4-4.5-1.4-7.7-0.9c-3.2,0.9-6.3,2.3-9.5,4.1c-3.2,2.3-6.3,4.5-9.5,7.2c-3.2,2.7-5.4,5.9-7.2,8.6
	c-1.8,2.7-3.2,5.4-3.6,8.1c-0.5,2.7,0,4.5,1.8,5.9c1.4,0.9,3.2,1.4,5.4,0.9c2.3-0.5,5-1.8,7.7-3.2c2.7-1.4,5.9-3.6,9-5.9
	C1151.4,2926.9,1154.6,2924.6,1157.7,2922.4z"/>
<path fill="#F25042" d="M1252.8,2859.8c1.4-1.4,3.6-2.3,6.8-2.7c3.2-0.9,5.9-1.4,9-1.4c2.7,0,5.4,0.5,7.7,0.9
	c2.3,0.5,3.6,1.8,3.6,3.2c0,0.9-0.5,2.3-2.3,5c-1.4,2.7-3.6,5.4-6.3,9s-5.4,7.7-9,12.2c-3.2,4.5-6.8,9-9.9,13.5
	c-3.2,4.5-6.8,9-9.9,13.5c-3.2,4.5-5.9,8.6-8.1,12.6c-2.3,3.6-4.1,7.2-5,9.9c-0.9,2.7-1.4,5-0.5,5.9c0.9,1.4,2.7,1.4,5,0.5
	c2.7-0.9,5.9-2.3,9.5-4.5c3.6-2.3,7.2-5,11.3-8.1c4.1-3.2,8.1-6.8,11.7-10.4c2.3-2.3,4.5-4.1,6.3-4.5c1.8-0.5,3.6-0.5,4.5,0
	c0.9,0.9,1.4,2.3,0.9,4.1s-1.4,4.5-3.6,7.2c-2.3,2.7-5,5.9-8.6,9.5c-3.6,3.6-7.2,6.8-11.3,9.9c-4.1,3.2-8.1,5.9-11.7,8.6
	c-3.6,2.7-6.8,4.1-9,5c-4.5,1.4-9,2.3-13.1,2.3c-4.1,0-7.7-0.5-11.3-1.4c-3.2-0.9-5.9-2.7-7.7-4.5c-1.8-1.8-2.7-4.5-2.7-7.7
	s0.9-7.7,3.2-13.1c2.3-5.4,5-10.8,8.1-16.7c3.2-5.9,6.8-12.2,11.3-18c4.1-6.3,8.1-12.2,12.2-17.6c4.1-5.4,7.7-9.9,11.3-14
	C1247.8,2864.3,1250.5,2861.1,1252.8,2859.8z"/>
<path fill="#F25042" d="M1278.9,2885c1.8-0.9,4.1-1.8,6.3-2.7c2.3-0.9,5-1.8,8.1-2.7c2.7-3.2,5.4-5.9,7.7-8.6c2.3-2.3,4.5-4.1,6.3-5
	c7.2-4.5,13.1-7.2,17.1-8.6c4.1-1.4,7.2-0.5,8.6,2.7c0.5,0.5-0.5,1.8-1.4,4.1c-1.4,1.8-3.2,4.5-5,7.7c5-0.9,9-1.4,12.2-1.8
	c3.2-0.5,5.4,0,6.3,0.5s1.4,1.4,2.3,2.7c0.5,1.4,0.9,2.7,0.9,4.1s-0.9,3.2-1.8,5c-0.9,1.8-2.7,3.6-5.4,5c-1.4,0.9-2.7,1.4-5,2.3
	c-2.3,0.5-4.5,0.9-7.2,1.4c-2.7,0.5-5.4,0.9-8.6,1.4c-3.2,0.5-6.3,0.9-9.5,0.9c-3.6,5-7.2,9.9-10.8,14.9c-3.6,5-6.8,9.5-9,14
	c-2.7,4.5-4.5,8.1-5.9,11.3c-1.4,3.2-1.4,5.4-0.5,6.8c1.8,2.3,4.5,3.2,7.7,2.3c3.2-0.9,6.8-2.7,10.8-5.4c3.6-2.7,7.2-5.9,10.8-9
	c3.6-3.6,6.3-6.3,8.6-8.6c2.3-2.3,4.1-3.6,5.9-4.1s3.2,0,4.1,1.4c0.9,0.9,1.4,2.7,0.9,4.5c-0.5,1.8-1.4,4.1-3.2,5.9
	c-1.8,2.3-4.5,5-7.7,8.1c-3.2,3.2-6.8,6.8-10.4,9.9c-3.6,3.2-7.2,6.3-11.3,9c-3.6,2.7-7.2,4.5-9.9,5.4c-3.2,0.9-6.3,1.4-10.4,1.8
	s-7.7,0-11.3-0.9c-3.6-0.9-6.8-2.3-9.5-4.1c-2.7-1.8-4.1-5-4.5-9c-0.5-2.3,0.5-5.4,1.8-9.5c1.4-4.1,3.6-8.1,5.9-13.1
	c2.7-4.5,5.4-9.9,8.6-14.9c3.2-5.4,6.8-10.4,10.4-15.3l-5.9,0.5c-1.8,0.5-2.7,0-3.2-0.9c-0.5-0.9-0.5-1.8,0-2.7
	c0.5-1.4,1.4-2.3,2.3-3.6C1275.7,2886.8,1277.1,2885.9,1278.9,2885z"/>
<path fill="#F25042" d="M1395.5,2861.1c-0.9,3.2-3.2,6.3-6.8,9.9s-7.2,7.7-11.7,12.2c-4.1,4.1-8.6,8.6-13.1,13.5
	c-4.5,4.5-8.1,9.5-10.8,14.4c7.7-7.7,14.9-13.5,21.6-18c6.8-4.1,13.1-6.8,18.5-7.7c5.4-0.9,9.9-0.9,13.5,0.9
	c3.6,1.8,6.3,4.1,7.7,7.7c0.9,2.3,0.5,5-0.9,8.1c-1.4,3.2-3.6,5.9-5.9,9c-2.7,3.2-5.4,6.3-8.6,9.5c-3.2,3.2-5.9,5.9-8.6,8.6
	c-2.7,2.7-4.5,5-6.3,7.2c-1.4,2.3-1.8,3.6-1.4,4.5c0.5,0.5,1.4,0.5,2.7,0c1.4-0.5,3.6-1.4,5.9-2.7c2.3-1.4,4.5-2.7,7.2-4.5
	c2.7-1.8,5.4-3.6,7.7-5.4c2.3-1.8,4.5-3.6,6.8-5.4c2.3-1.8,3.6-3.2,4.5-4.5c1.8-1.8,3.2-3.2,5-3.6c1.4-0.5,2.7,0,3.6,0.5
	c0.9,0.9,1.4,1.8,0.9,3.6c0,1.8-1.4,3.6-3.2,5.9c-1.8,2.3-4.5,5.4-8.1,9c-3.6,3.6-7.2,7.7-11.3,11.3c-4.1,3.6-8.1,7.2-12.2,9.9
	c-4.1,2.7-7.7,4.5-10.8,5c-3.2,0.5-6.3,0.5-9.5-0.5c-3.2-0.5-6.3-1.8-9-3.6c-2.7-1.8-4.5-4.1-6.3-6.8c-1.4-2.7-1.8-6.3-0.9-10.4
	c0.5-2.3,1.4-4.5,2.7-6.8c1.4-2.3,3.2-5,5.4-7.2c2.3-2.3,4.1-4.5,6.3-6.8c2.3-2.3,4.1-4.1,5.9-5.9s3.2-3.2,4.1-4.5
	c0.9-1.4,0.9-2.3,0.5-2.3c-0.9-0.5-2.3,0.5-5,2.3c-2.7,1.8-5.9,4.1-9,7.2c-3.6,3.2-7.2,6.8-11.7,10.4c-4.1,4.1-8.1,7.7-12.2,11.7
	c-4.1,3.6-7.7,7.2-10.8,10.8c-3.2,3.2-5.9,5.9-7.7,8.1c-1.4,1.4-3.2,2.3-5.4,3.2c-2.3,0.9-4.5,1.4-7.2,1.4c-2.3,0-5-0.5-6.8-0.9
	c-2.3-0.5-3.6-1.8-4.5-3.6c-0.5-1.4,0.5-4.1,2.7-9c2.7-5,5.9-10.4,10.4-17.1c4.1-6.8,9-13.5,14.4-21.2c5.4-7.7,10.4-14.9,15.8-21.2
	c5-6.8,9.5-12.6,14-17.6c4.1-5,7.2-8.1,9-9.5c2.7-1.8,5.9-3.2,9.5-4.1c3.6-0.9,6.8-1.4,9.9-0.9c3.2,0,5.4,0.9,7.2,1.8
	C1395.5,2857.5,1396,2859.3,1395.5,2861.1z"/>
<g>
	<path fill="#020826" d="M1149.6,2967c-0.5-1.4-0.9-2.7-2.3-3.6s-2.3-1.8-3.6-2.3c-0.5,0-0.9-0.5-1.4-0.5c-1.4,0.9-2.7,1.4-4.1,2.3
		c-5.9,3.2-11.3,5.4-16.7,6.8c-4.1,1.4-8.1,1.8-11.7,1.8c-1.8,0-4.1,0-5.9-0.5c-5.4-0.9-10.4-3.6-14-7.7c-6.8,0.9-13.5,2.3-20.3,3.6
		c-3.2,0.5-6.8,1.4-9.9,2.3s-6.3,1.4-9.9,2.3c-0.9,0-1.8,0.5-2.7,0.5c-0.9,0-1.8,0.5-2.7,0.5c-2.7,0.9-5.4,1.4-8.1,1.8
		c-2.7,0.5-5.4,0.9-8.1,0.5c-1.8,0-3.6,0-5.4,0.5c-1.8,0.5-2.7,1.4-3.6,2.3c-1.4,1.4-1.8,2.7-1.4,4.5c0.5,1.4,1.4,2.7,2.3,3.6
		c1.4,0.9,2.7,1.4,4.1,2.3c1.4,0.5,3.2,0.9,4.5,0.9s2.3,0.5,2.7,0.5c2.3,0,4.5,0,6.8,0c4.1,0,7.7-0.5,11.3-1.4
		c3.6-0.9,7.2-1.4,11.3-2.3c-4.5,5.4-8.6,9.9-12.2,14.4c-3.6,4.5-7.2,9-10.4,14c-6.8,1.4-14,2.7-20.7,4.1c-1.4,0.5-2.3,0.5-3.2,1.4
		c-0.9,0.5-1.4,0.9-1.8,1.4s-0.5,0.9-0.5,1.4c0,0.5,0,0.9,0,1.4c0,1.4,0.9,2.3,1.8,2.7c0.9,0.9,2.3,1.4,4.1,2.3
		c1.4,0.5,3.2,0.9,5,1.4c1.8,0,3.2,0.5,5,0.5h0.5c-1.4,2.3-2.7,4.5-4.1,6.8s-2.7,4.5-4.1,7.2c-0.9,1.8-0.9,3.6,0,5.4
		s2.3,2.7,4.5,3.6c2.3,0.9,4.1,1.4,5.4,1.4h0.5c2.3,0,4.1-0.9,5.4-2.7c2.7-5,5.4-9.5,8.1-13.5c2.7-4.1,5.4-8.1,8.1-11.7
		c8.6-1.4,17.1-2.7,25.2-3.6c8.6-0.9,17.1-1.8,25.7-2.7c5.4-0.5,7.7-2.3,7.2-5c0-1.4-0.5-2.3-1.8-3.2c-1.4-0.9-2.7-1.8-4.1-2.3
		c-1.8-0.5-3.2-0.9-5-1.4c-1.8,0-3.2-0.5-4.5-0.5c-10.4,0.9-20.7,1.8-31.1,3.2c2.3-2.7,5-5.9,7.2-8.6c2.7-3.2,5.4-6.3,8.1-9.5
		c0.9-0.9,1.4-1.8,1.4-3.2s-0.5-2.7-2.3-3.6c-1.4-1.4-3.2-2.3-5.4-2.7c1.4-0.5,2.3-0.5,3.2-0.9c1.4-0.5,2.3-0.5,3.6-0.5
		c5-0.9,9.5-1.8,14.4-2.7c5-0.9,9.5-1.4,14.4-2.3l5.4-0.9c1.8-0.5,4.1-0.5,6.3-0.9c2.3-0.5,4.5-0.5,6.3-0.9c1.4,0.5,2.7,0.9,4.5,1.4
		s3.6,0.9,5.4,0.9c1.8,0,3.6,0,5-0.5c1.8-0.5,3.2-0.9,4.1-1.8c1.4-1.4,2.3-2.3,2.3-3.6C1149.6,2968.8,1149.6,2967.9,1149.6,2967z"/>
	<path fill="#020826" d="M1151.9,2987.7c3.6-0.5,6.3,0.5,9,1.8c2.7,1.4,4.5,3.6,5.9,6.3c0.9-1.4,2.3-2.3,3.2-3.2
		c0.9-0.9,1.8-1.8,2.7-2.3c1.8-0.9,3.6-1.8,5.4-2.3c1.8-0.5,3.6-0.5,5,0c1.4,0.5,2.7,0.9,3.6,1.8s1.4,1.8,1.4,3.2
		c0,0.9-0.5,2.3-1.8,3.6c-0.9,1.4-2.3,3.2-4.1,5c-1.4,1.8-3.2,3.6-5,5.4c-1.8,1.8-3.2,3.6-4.5,5c-1.4,1.8-2.7,3.2-3.2,4.1
		c-0.9,0.9-0.9,1.8-0.9,2.3c0.5,0.9,1.8,0.9,3.6,0.5c1.8-0.5,3.2-1.4,5.4-2.7c1.8-1.4,3.6-2.7,5.4-4.1c1.8-1.4,3.2-2.7,4.1-4.1
		c0.9-0.9,1.8-1.8,3.2-2.3c0.9-0.5,1.8-0.5,2.3,0c0.5,0.5,0.9,0.9,0.9,1.8c0,0.9-0.5,2.3-1.4,3.6c-0.5,0.9-1.8,2.3-3.2,3.6
		c-1.4,1.4-3.2,3.2-5,5s-3.6,3.2-5.9,5s-4.1,3.2-6.3,4.5s-4.1,2.3-6.3,3.2c-1.8,0.9-3.6,1.4-5,0.9c-3.2,0-5.9-0.9-8.1-2.7
		c-1.8-1.4-3.2-3.2-3.6-5.4c-2.7,2.3-5.9,4.1-9,5.9c-3.2,1.8-6.3,3.2-9,4.1c-2.7,0.9-5.9,1.4-8.1,0.9c-2.7-0.5-4.5-1.8-6.3-3.6
		c-1.8-2.7-2.7-5.4-2.7-8.6s0.5-6.3,1.4-9.5c1.4-3.2,3.2-6.3,5.4-9.5c2.3-3.2,5-5.9,8.1-8.1c3.2-2.3,6.8-4.5,10.4-6.3
		C1143.3,2989,1147.4,2988.1,1151.9,2987.7z M1155,3011.6c0.5-0.5,0.9-1.4,1.4-2.3c0.9-0.9,1.4-2.3,1.8-3.2c0.5-1.4,0.9-2.3,0.5-3.2
		c0-0.9-0.5-1.8-1.8-2.7c-1.4-0.9-2.7-0.9-5-0.5c-1.8,0.5-3.6,1.4-5.9,2.7c-1.8,1.4-4.1,3.2-5.9,5s-3.2,3.6-4.5,5.4s-1.8,3.6-2.3,5
		c-0.5,1.8,0,2.7,1.4,3.6c0.9,0.5,1.8,0.9,3.6,0.5c1.4-0.5,3.2-1.4,5-2.3c1.8-0.9,3.6-2.3,5.9-3.6
		C1151,3014.3,1152.8,3012.9,1155,3011.6z"/>
	<path fill="#020826" d="M1216.7,2993.1c0,1.4-0.5,2.7-1.8,4.5s-2.7,4.1-4.5,5.9c-1.8,2.3-3.6,4.1-5.4,6.3c-1.8,2.3-3.2,4.1-4.5,5.4
		c-1.4,1.8-1.8,3.2-1.8,4.1s0.5,1.4,2.3,1.4c1.4,0,3.2-0.5,5-1.8c1.8-0.9,3.6-2.3,5.4-4.1c1.8-1.4,3.6-3.2,5-4.5
		c1.4-1.4,2.7-2.7,3.6-4.1c0.9-0.9,1.8-1.8,2.7-1.8c0.9,0,1.8,0,2.3,0.5c0.5,0.5,0.5,1.4,0.5,2.3c0,1.4-0.9,2.7-2.3,4.1
		c-1.4,1.8-3.6,4.1-5.9,6.8c-2.3,2.7-5.4,5-8.1,7.2c-3.2,2.3-6.3,4.1-10.4,5.4c-3.6,1.4-7.7,2.3-11.3,1.8c-3.2,0-5.4-0.9-6.3-2.7
		c-1.4-1.8-1.8-3.6-1.4-6.3c0.5-2.3,0.9-5,2.7-8.1c1.4-3.2,3.2-5.9,5.4-9c2.3-3.2,4.5-5.9,6.8-8.1c2.3-2.7,5-5,7.2-6.3
		c0.9-0.9,2.7-1.4,4.1-1.8c1.8-0.5,3.2-0.5,5-0.5c1.8,0,3.2,0.5,4.1,0.9C1216.3,2991.7,1216.7,2992.2,1216.7,2993.1z M1220.8,2970.6
		c0.9,0.5,2.3,1.4,3.2,2.7c0.9,1.4,1.8,2.7,2.3,4.5s0,3.2-0.5,5c-0.5,1.8-1.8,3.2-4.1,4.1c-2.3,1.4-4.1,1.8-6.3,1.4
		c-1.8,0-3.6-0.9-5-1.8c-1.4-0.9-2.7-2.3-3.2-4.1c-0.9-1.8-0.9-3.6-0.9-5.4c0.5-1.8,0.9-3.6,1.8-4.5c0.9-0.9,1.8-1.8,3.2-2.3
		s2.7-0.9,4.5-0.5C1217.2,2969.7,1219,2970.1,1220.8,2970.6z"/>
	<path fill="#020826" d="M1234.7,2987.2c2.7-0.9,5-1.4,7.2-1.4c2.3,0,3.6,0.9,4.5,1.8c1.8-1.8,3.6-3.6,5.4-5
		c1.8-1.4,3.2-1.8,4.5-2.3c1.8-0.5,3.6,0,5.4,0.9c1.4,0.9,2.7,1.8,4.1,3.2c1.4,1.4,2.3,2.3,2.7,3.6c0.9,1.4,1.4,2.3,2.3,2.3
		c0.5,0.5,1.4,0.5,2.3,0c0.9-0.5,2.3-0.5,3.2-0.9c0.9-0.5,1.8-0.5,2.7-0.5c0.9,0,1.4,0.5,1.8,1.4c0.5,1.4,0,2.7-0.9,4.1
		c-0.9,1.4-2.7,2.3-4.5,3.2s-3.6,1.4-5.4,1.8c-1.8,0.5-3.6,0.5-5,0.5c-1.4,0-2.3-0.5-3.6-1.4c-0.9-0.9-1.8-1.4-3.2-2.3
		c-0.9-0.9-1.8-1.4-3.2-1.4c-0.9-0.5-2.3,0-4.1,0.5c-1.8,0.9-4.1,2.3-6.8,5c-2.7,2.7-6.3,6.3-9.9,11.7c-1.4,2.3-2.7,4.1-4.1,6.3
		c-1.4,1.8-2.3,3.6-3.6,5.4c-0.9,1.8-1.8,3.2-2.7,4.1c-0.9,1.4-1.4,1.8-1.8,2.7c-0.9,0.9-1.8,1.8-3.2,1.8c-1.4,0.5-2.7,0.5-4.1,0
		c-1.4-0.5-2.7-0.9-3.6-1.4c-0.9-0.9-1.8-1.4-2.3-2.7c0-0.9,0.5-2.3,1.4-4.5c0.9-2.3,2.3-5,4.1-8.1c1.8-3.2,3.6-6.3,5.4-9.5
		c1.8-3.2,4.1-6.3,5.9-9.5c1.8-2.7,3.6-5.4,5-7.2C1233.4,2988.1,1234.3,2987.2,1234.7,2987.2z"/>
</g>
<g>
	<path fill="#F25042" d="M805,3480.5c2.7,3.6,4.1,6.8,4.5,9.9c0.5,3.2,0,5.4-0.5,6.8c-1.4,6.8-5.9,11.3-13.1,13.5
		c-2.3,0.9-5,1.4-6.8,1.4c-1.4,0-2.3,0-2.7-0.5c-16.7,28.8-29.7,57.2-39.6,85.1c-1.4,4.1-3.6,7.2-7.2,9.5s-7.2,3.2-11.7,3.2
		c-3.2,0-6.3-0.5-9.5-1.8c-6.8-2.3-12.6-6.3-16.7-12.2c-4.5-5.9-5.4-12.2-3.2-18.5c4.5-12.6,9.5-27,16.2-42.3
		c6.3-15.8,13.5-32,21.6-49.5c-7.7-2.7-15.8-5-23.4-6.8c-7.7-1.8-15.3-3.6-22.5-5h-1.4c-20.7-4.5-41.9-7.2-64.4-8.6
		c-9.5,13.5-18.9,26.6-28.8,39.6s-19.4,25.7-28.8,38.7c-8.6,11.7-17.1,23.4-26.1,35.1c-8.6,11.7-17.1,23.4-25.7,35.1
		c-0.9,1.4-2.7,2.7-5,4.5c-2.3,1.8-5.4,2.3-9,2.3c-1.8,0-3.2,0-4.1-0.5c-3.6-0.5-7.2-1.8-11.7-4.1c-4.1-2.3-8.1-5-12.2-7.7
		c-4.1-3.2-7.7-6.3-10.4-9.9c-3.2-3.6-5.4-7.2-6.3-10.4c-2.3-7.2-0.9-12.6,3.6-16.7c7.2-7.2,14.9-15.3,23-23.9
		c8.1-8.6,15.8-17.6,23.9-27s15.8-18.9,23.9-28.4c8.1-9.5,15.8-18.9,23-27.9c-32.9,0.9-58.6,3.6-77.5,6.8
		c-18.9,3.6-29.3,7.2-32,11.3c-1.4,1.8-3.6,3.6-6.3,5.4c-2.7,2.3-7.2,2.7-13.5,2.3c-3.2-0.5-6.3-0.9-10.4-2.3
		c-3.6-1.4-7.7-2.7-10.8-5c-3.6-2.3-6.8-4.5-9.5-6.8c-2.7-2.7-5-5.4-5.9-8.6c-2.3-5.9-1.4-11.3,2.7-16.2
		c6.3-7.2,16.7-12.6,30.6-16.7c14-4.1,29.7-7.2,47.7-9.5s37.4-3.2,57.7-3.2s40.5,0,59.9,0.9c6.8-8.6,12.6-15.8,16.7-21.6
		c4.5-5.9,7.2-9.5,8.6-11.7l4.5-6.3c1.8-2.3,2.7-3.6,3.2-5l-2.7,1.4c-14.4,4.5-28.8,10.4-43.2,17.6c-3.6,1.8-7.7,2.3-11.7,1.8
		c-4.1-0.5-8.1-1.8-11.7-3.6c-3.6-1.8-6.8-4.1-9.9-6.8c-3.2-2.7-5-5.4-6.3-8.6c-2.3-4.5-2.7-9-0.9-13.1c1.4-4.1,4.5-7.2,8.6-9.5
		c9.9-4.5,18.9-8.6,27.9-12.2c9-3.6,17.6-6.8,26.6-9.9l6.8-2.3c7.2-2.3,14.4-4.5,22.5-6.8c8.1-2.3,15.8-2.3,23.9-0.9
		c9.5,1.4,16.7,4.1,20.7,8.6c4.5,4.5,7.7,8.6,9,12.2c1.8,4.5,2.7,9,2.7,13.5c0,5-0.5,9.5-1.8,14c-0.9,4.5-2.7,9-4.5,13.5
		c-2.3,4.5-4.1,8.6-6.8,12.2l-18.9,27.5c14,1.4,25.7,2.7,35.1,4.1c9.5,1.4,15.8,2.3,18.9,3.2c7.7,1.8,15.8,4.1,23.9,6.3
		c8.6,2.3,16.7,5,25.2,8.1c14-25.7,30.2-50,47.7-73.9c18-23.9,37.8-44.1,60.4-62.2c3.6-2.7,7.7-4.1,13.1-4.5
		c5-0.5,10.4,0.5,15.3,1.8c5,1.4,9.9,3.6,14.4,5.9s7.7,5,9.9,7.7c3.6,4.1,5.4,8.1,5,12.2c-0.5,4.1-2.3,7.2-5,9.9
		c-21.2,20.3-41,41.9-59.9,64.4C837.4,3433.6,820.3,3456.6,805,3480.5z"/>
	<path fill="#020826" d="M628.9,3777.3c-168.5-10.4-296.4-155.4-286-323.9c10.4-168.5,155.4-296.4,323.9-286
		c52.3,3.2,100.5,19.4,141.9,45c-54.1-46.8-123.4-77-200.5-82c-186.5-11.7-347.3,130.2-358.6,316.7
		c-11.7,186.5,130.2,347.3,316.7,358.6c77,5,149.5-16.7,209-56.3C731.1,3770.6,681.1,3780.5,628.9,3777.3z"/>
</g>
<g>
	<g>
		<path fill="#F25042" d="M343.7,511c2.7,3.2,4.1,6.3,4.1,9c0.5,2.7,0,5-0.5,6.3c-1.4,6.3-5.4,10.4-12.2,12.6
			c-2.3,0.9-4.5,1.4-6.3,1.4c-1.4,0-2.3,0-2.7-0.5c-15.3,26.6-27.9,53.2-36.9,79.3c-1.4,3.6-3.6,6.8-6.8,8.6
			c-3.2,1.8-6.8,3.2-10.8,3.2c-3.2,0-5.9-0.5-8.6-1.4c-6.3-1.8-11.7-5.9-15.8-11.3c-4.1-5.4-5-11.3-2.7-17.1
			c4.1-11.7,9-25.2,14.9-39.6c5.9-14.4,12.6-29.7,20.3-45.9c-7.2-2.7-14.4-4.5-22.1-6.3c-7.2-1.8-14.4-3.2-20.7-4.5h-1.4
			c-19.4-4.1-39.2-6.8-59.9-8.1c-9,12.6-17.6,24.8-27,36.9c-9,12.2-18,23.9-27,36c-8.1,10.8-16.2,21.6-24.3,32.9
			c-8.1,10.8-16.2,22.1-23.9,32.9c-0.9,1.4-2.7,2.7-5,4.1c-2.3,1.4-5,2.3-8.6,2.3c-1.4,0-2.7,0-3.6-0.5c-3.2-0.5-6.8-1.8-10.8-3.6
			c-4.1-1.8-7.7-4.5-11.3-7.2c-3.6-2.7-6.8-5.9-9.9-9c-2.7-3.2-5-6.8-5.9-9.9c-1.8-6.8-0.9-11.7,3.6-15.3c6.8-6.8,14-14.4,21.2-22.1
			c7.7-8.1,14.9-16.2,22.5-24.8s14.9-17.6,22.5-26.6c7.7-9,14.4-17.6,21.2-26.1c-30.6,0.9-54.5,3.2-72.1,6.3
			c-17.6,3.2-27.5,6.8-29.7,10.8c-1.4,1.4-3.2,3.2-5.9,5c-2.7,1.8-6.8,2.7-12.6,2.3c-2.7-0.5-5.9-0.9-9.5-2.3s-6.8-2.7-10.4-4.5
			c-3.2-1.8-6.3-4.1-9-6.3c-2.7-2.3-4.5-5-5.4-8.1c-2.3-5.4-1.4-10.8,2.7-15.3c5.9-6.8,15.8-11.7,28.4-15.8
			c13.1-4.1,27.9-6.8,44.6-8.6c16.7-1.8,34.7-2.7,53.6-3.2c18.9,0,37.8,0,55.9,0.9c6.3-8.1,11.7-14.9,15.8-20.3
			c4.1-5.4,6.8-9,8.1-10.8l4.1-5.9c1.4-1.8,2.7-3.6,3.2-4.5l-2.7,1.4c-13.5,4.5-26.6,9.9-40.1,16.2c-3.6,1.4-7.2,1.8-10.8,1.4
			c-3.6-0.5-7.2-1.8-10.8-3.6c-3.6-1.8-6.3-4.1-9.5-6.3c-2.7-2.7-5-5-5.9-8.1c-1.8-4.5-2.3-8.1-0.9-12.2c1.4-3.6,4.1-6.8,8.1-8.6
			c9-4.5,18-8.1,26.1-11.3c8.1-3.2,16.7-6.3,24.8-9l6.3-1.8c6.8-2.3,13.5-4.5,21.2-6.3c7.7-1.8,14.9-2.3,22.1-0.9
			c9,1.4,15.3,4.1,19.4,8.1c4.1,4.1,7.2,7.7,8.6,11.3c1.8,4.1,2.7,8.1,2.7,12.6s-0.5,8.6-1.4,13.1c-0.9,4.5-2.3,8.6-4.5,12.6
			c-1.8,4.1-4.1,8.1-6.3,11.3L200,461.9c13.1,1.4,23.9,2.3,32.9,3.6c9,1.4,14.9,2.3,17.6,2.7c7.2,1.8,14.4,3.6,22.5,5.9
			c7.7,1.8,15.8,4.5,23.4,7.7c13.1-23.9,27.9-46.8,44.6-68.9s35.1-41.4,55.9-57.7c3.2-2.7,7.2-4.1,12.2-4.1c5-0.5,9.5,0.5,14.4,1.8
			c5,1.4,9.5,3.2,13.5,5.4s7.2,4.5,9.5,7.2c3.6,3.6,5,7.7,4.5,11.3c-0.5,3.6-1.8,6.8-4.5,9c-19.8,18.9-38.3,39.2-55.9,60.4
			C373.9,467.3,358.1,489,343.7,511z"/>
		<path fill="#F25042" d="M460.4,462.8c7.2-0.5,14.9,0,22.5,1.4c7.7,1.4,14.4,3.6,20.7,6.3c5.9,2.7,10.8,6.8,14.4,11.3
			c3.6,4.5,5,9.9,4.1,15.8c-0.9,4.5-2.7,9.9-6.3,15.8c-3.6,5.9-9,12.2-17.1,17.6c-7.7,5.9-18,11.3-30.6,15.8
			c-12.6,4.5-28.4,8.1-47.3,9.9c-0.9,5-0.5,9,0.5,12.6c0.9,3.6,3.2,5.9,6.8,7.2c8.1,3.6,16.7,4.5,26.1,2.3c9-1.8,18.5-5.4,27.5-10.8
			c9-5,18-11.3,26.6-18c8.6-6.8,16.2-13.5,23-19.8c3.2-3.2,6.8-5.4,10.4-6.3c3.6-0.9,6.3-0.9,8.6,0.5c1.8,1.4,2.7,3.6,2.7,6.8
			c-0.5,3.2-2.3,7.2-6.3,12.2c-6.8,8.1-15.3,16.7-25.2,25.2c-9.9,8.6-21.2,16.2-33.3,23c-12.2,6.8-24.8,12.2-38.3,15.8
			c-13.5,3.6-27,5-40.5,3.6c-5.4-0.9-10.8-2.3-16.2-4.5c-5.4-2.3-10.4-5.9-14.9-10.4c-4.5-4.5-7.7-10.4-9.9-17.1
			c-2.3-6.8-3.2-15.3-2.3-24.8c0.9-9.9,4.5-20.3,10.8-30.6c5.9-10.8,13.5-20.3,22.5-29.3s18.9-16.2,30.2-22.5
			C438.7,467.3,449.6,463.7,460.4,462.8z M463.1,498c-3.2,0.9-6.3,2.3-9.5,4.5c-3.2,2.3-6.3,5-9.5,8.1c-3.2,3.2-5.9,7.2-8.6,11.3
			c-2.7,4.1-5,8.6-7.2,12.6c11.7-2.3,21.6-5.9,29.7-10.8c8.1-5,14-9.5,17.6-14c3.6-4.5,4.1-8.1,2.3-10.8
			C476.1,496.6,471.2,496.2,463.1,498z"/>
		<path fill="#F25042" d="M639.6,462.8c10.8-0.9,20.3,1.4,28.4,6.8c8.1,5,14,12.2,17.6,21.2c3.6-3.6,6.8-6.8,9.9-9.5
			c3.2-2.7,6.3-5,9-6.8c5.4-3.2,10.8-5.4,16.7-6.3c5.9-0.9,11.3-0.9,16.2,0c5,0.9,8.6,2.7,11.7,5.4c2.7,2.7,4.1,6.3,3.6,10.8
			c-0.5,2.7-2.3,6.3-5.9,11.3c-3.6,4.5-7.7,9.5-12.6,14.9s-10.4,10.8-15.8,16.2c-5.4,5.4-10.8,10.8-15.3,15.3
			c-4.5,5-8.1,9-10.8,12.2c-2.7,3.6-3.6,5.9-2.3,7.2c1.8,2.7,5.4,3.2,10.8,1.4c5-1.4,10.4-4.1,16.7-7.7c5.9-3.6,11.7-7.7,17.6-12.2
			c5.9-4.5,10.4-8.6,13.5-11.7c3.2-3.2,6.3-5.4,9.5-6.8c3.2-1.4,5.4-1.4,7.2,0c1.8,1.4,2.3,3.2,2.3,5.9c0,2.7-1.4,6.8-4.1,11.3
			c-1.8,3.2-5.4,6.8-9.5,11.7c-4.5,4.5-9.5,9.5-15.3,14.4c-5.9,5-12.2,9.9-18.9,14.9c-6.8,5-13.5,9.5-20.3,13.1
			c-6.8,4.1-13.5,7.2-19.4,9.5c-6.3,2.3-11.7,3.2-16.2,2.7c-10.4-0.9-18.5-4.1-24.8-8.6c-5.9-5-9.5-10.8-10.4-17.6
			c-9,5.9-18.5,11.7-28.4,16.7c-9.9,5-19.4,9-28.8,11.7c-9,2.7-17.6,3.2-25.7,1.8c-7.7-1.4-14-5.4-18.5-12.6
			c-5.4-8.1-8.1-17.1-8.1-26.6c0-9.9,1.8-19.4,5.9-29.3c4.1-9.9,9.9-19.4,17.6-28.4c7.7-9,16.7-17.6,26.6-24.8
			c10.4-7.2,21.6-13.5,33.8-18.5C614,466.9,626.6,464.2,639.6,462.8z M646.9,538.5c0.9-1.8,2.7-4.1,5-7.2c2.3-3.2,4.1-6.3,5.9-9.9
			c1.8-3.6,2.3-7.2,2.3-10.4c0-3.6-1.8-6.3-5.9-8.6c-4.1-2.7-9-3.2-14.9-1.4c-5.9,1.4-12.2,4.5-18.5,8.1c-6.3,4.1-12.2,9-18,14.4
			c-5.9,5.4-10.8,11.3-14.4,16.7c-3.6,5.9-6.3,10.8-7.2,15.8c-1.4,5,0,8.6,3.2,11.3c2.7,1.8,5.9,2.3,10.8,1.4
			c4.5-1.4,9.5-3.2,15.3-6.3c5.9-3.2,11.7-6.8,18-11.3C634.7,547.1,641,542.6,646.9,538.5z"/>
		<path fill="#F25042" d="M832,416c3.2-2.3,7.7-4.1,13.1-5.9c5.9-1.4,11.7-2.3,17.1-2.3c5.9,0,10.8,0.5,15.3,1.8
			c4.5,1.4,6.8,3.6,7.2,6.3c0.5,1.4-1.4,5-4.1,9.5c-3.2,5-7.2,10.8-12.2,18c-5,7.2-10.8,14.9-17.6,23.9
			c-6.8,8.6-13.1,17.6-19.8,26.6c-6.8,9-13.1,17.6-18.9,26.6c-6.3,8.6-11.7,16.7-16.2,24.3s-8.1,14-9.9,19.4
			c-2.3,5.4-2.3,9.5-0.9,11.7s5,2.7,9.9,0.9c5-1.8,11.3-4.5,18-9c6.8-4.5,14.4-9.5,22.5-16.2c8.1-6.3,15.3-13.1,22.5-20.3
			c4.5-5,8.6-7.7,12.6-9c3.6-1.4,6.8-1.4,8.6,0.5c1.8,1.4,2.7,4.1,2.3,8.1c-0.5,4.1-2.7,8.6-6.8,14c-4.1,5.4-9.5,11.3-16.7,18
			c-7.2,6.8-14.4,13.5-22.5,19.4c-7.7,6.3-15.3,11.7-23,16.7c-7.7,5-13.5,8.1-18,9.5c-9,2.7-17.6,4.5-25.7,4.5
			c-8.1,0.5-15.3-0.5-21.6-2.7c-6.3-1.8-11.3-5-14.9-9c-3.6-4.1-5.4-8.6-5.4-14.4c0-6.8,1.8-14.9,5.9-25.2
			c4.1-10.4,9.5-21.2,15.8-32.9c6.3-11.7,13.5-23.4,21.6-35.6c8.1-12.2,15.8-23.4,23.9-33.8c7.7-10.4,14.9-19.4,21.6-27.5
			C822.5,424.5,827.9,419.1,832,416z"/>
		<path fill="#F25042" d="M882.9,465.1c3.6-1.4,7.7-3.2,12.6-5c5-1.8,9.9-3.6,15.8-5.4c5.4-6.3,10.4-11.7,14.9-16.7
			c4.5-4.5,8.6-8.1,12.2-9.9c14-8.6,25.2-14.4,33.8-17.1c8.1-2.7,14-0.9,16.7,5.4c0.5,1.4-0.5,4.1-2.7,7.7
			c-2.3,4.1-5.9,8.6-9.9,14.4c9.5-1.8,17.1-3.2,23.9-3.6c6.8-0.5,10.8-0.5,12.6,0.9c1.4,0.9,2.7,2.7,4.1,5c1.4,2.3,1.8,5,1.4,8.1
			c-0.5,3.2-1.4,6.3-3.6,9.9c-2.3,3.6-5.4,6.8-10.4,9.9c-2.3,1.4-5.4,2.7-9.5,4.1c-4.1,1.4-8.6,2.3-14,3.2
			c-5.4,0.9-10.8,1.8-17.1,2.3c-5.9,0.9-12.2,1.4-18.5,1.8c-7.2,9.5-14.4,19.4-21.2,28.8c-6.8,9.5-13.1,18.5-18,27
			s-9,15.8-11.3,22.1c-2.7,6.3-2.7,10.8-0.9,13.1c3.6,5,8.6,6.3,15.3,4.5c6.8-1.8,13.5-5.4,20.7-10.8c7.2-5,14.4-11.3,21.2-18
			c6.8-6.8,12.6-12.2,16.7-16.7c4.1-4.5,7.7-7.2,11.3-7.7c3.6-0.5,6.3,0,8.1,2.3c1.8,2.3,2.3,5,1.8,9c-0.5,3.6-2.7,7.7-6.3,11.7
			c-3.6,4.5-9,9.9-15.3,16.2c-6.3,6.8-13.1,13.1-20.3,19.8c-7.2,6.8-14.4,12.6-21.6,18c-7.2,5.4-14,8.6-19.4,10.4
			c-5.9,1.4-12.6,2.7-20.3,3.2s-14.9,0-22.1-1.4c-7.2-1.4-13.1-4.1-18.5-8.1c-5-4.1-8.1-9.5-8.6-17.1c-0.5-4.5,0.9-10.8,3.6-18
			c2.7-7.7,6.8-15.8,11.7-25.2c5-9,10.8-18.9,17.1-29.3c6.3-10.4,13.1-20.3,19.8-29.7l-11.3,1.4c-3.2,0.5-5.4,0-6.3-1.4
			c-0.9-1.4-0.9-3.6,0-5.9s2.3-4.5,4.5-7.2C877.5,468.7,880.2,466.9,882.9,465.1z"/>
		<path fill="#F25042" d="M1110.8,419.1c-1.8,5.9-6.3,12.2-13.1,19.8c-6.8,7.2-14.4,15.3-22.5,23.4c-8.1,8.1-16.7,17.1-25.7,26.1
			c-8.6,9-15.8,18.9-21.2,28.4c14.4-15.3,28.8-26.6,41.9-34.7c13.5-8.1,25.2-13.1,36-15.3c10.8-2.3,19.4-1.8,26.6,1.4
			c7.2,3.2,12.2,8.1,14.4,15.3c1.4,4.5,0.9,9.9-1.8,15.3c-2.7,5.9-6.8,11.7-11.7,18c-5,6.3-10.4,12.2-16.7,18.5
			c-5.9,5.9-11.7,11.7-16.7,17.1c-5,5.4-9,9.9-11.7,14c-2.7,4.1-3.6,6.8-2.3,8.6c0.9,0.9,2.7,0.9,5.9,0c3.2-1.4,6.8-3.2,11.3-5.4
			c4.5-2.7,9-5.4,14.4-9c5-3.6,10.4-6.8,14.9-10.8c5-3.6,9-7.2,13.1-10.4s7.2-6.3,9-8.6c3.2-3.6,6.3-5.9,9.5-6.8
			c3.2-0.9,5.4-0.5,7.2,0.9c1.8,1.4,2.3,3.6,1.8,6.8s-2.3,7.2-6.3,11.7c-3.6,4.5-9,10.4-15.8,18c-6.8,7.7-14,14.9-21.6,22.1
			s-15.8,13.5-23.4,18.9s-14.9,8.6-20.7,9.5c-5.9,0.9-11.7,0.5-18.5-0.9c-6.3-1.4-12.2-3.6-17.6-7.2c-5-3.6-9-8.1-11.7-13.5
			c-2.7-5.4-3.6-12.2-1.8-20.3c0.9-4.5,2.7-9,5.9-13.5c3.2-5,6.8-9.5,10.8-14.4c4.1-4.5,8.1-9,12.6-13.5s8.1-8.1,11.7-11.7
			c3.2-3.6,5.9-6.3,7.7-8.6c1.8-2.3,2.3-4.1,1.4-5c-1.4-0.9-5,0.5-9.9,4.1c-5,3.6-11.3,8.1-18,14.4c-6.8,5.9-14.4,13.1-22.5,20.7
			c-8.1,7.7-15.8,15.3-23.9,22.5c-7.7,7.7-14.9,14.4-21.2,21.2c-6.3,6.8-11.3,11.7-14.9,15.3c-2.7,2.7-5.9,4.5-10.4,6.3
			c-4.5,1.8-9,2.7-14,2.7c-5,0-9.5-0.5-13.5-1.8c-4.5-1.4-7.2-3.6-9-7.2c-1.4-2.3,0.5-8.1,5.4-17.6c5-9.5,11.7-20.3,19.8-33.3
			c8.1-13.1,17.6-26.6,28.4-41.4c10.4-14.9,20.7-28.8,30.6-41.4c9.9-13.1,18.9-24.3,27-33.8c8.1-9.5,14-15.8,17.6-18
			c5.4-3.6,11.3-6.3,18-8.1s13.1-2.3,18.9-1.8c5.9,0.5,10.4,1.8,14,3.6C1111.3,411.9,1112.2,415.1,1110.8,419.1z"/>
	</g>
	<g>
		<path fill="#020826" d="M630.2,625.9c-0.5-2.7-1.8-5-4.5-7.2c-2.3-1.8-4.5-3.6-7.2-5c-0.9-0.5-1.8-0.9-2.7-0.9
			c-2.7,1.4-5,2.7-7.7,4.1c-11.3,5.9-22.1,10.4-32.9,13.1c-8.1,2.3-15.8,3.2-23,3.2c-4.1,0-7.7-0.5-11.3-0.9
			c-10.8-1.8-20.3-6.8-27.5-14.9c-13.5,1.8-26.6,4.5-39.6,6.8c-6.3,1.4-13.1,2.7-19.4,4.1c-6.3,1.4-12.6,2.7-18.9,4.5
			c-1.8,0.5-3.6,0.9-5,1.4c-1.4,0.5-3.2,0.9-5,1.4c-5.4,1.4-10.8,2.7-16.2,4.1c-5.4,0.9-10.4,1.4-15.8,0.9c-3.6-0.5-7.2,0-10.4,0.9
			c-3.2,0.9-5.4,2.7-7.2,4.5c-2.7,2.7-3.2,5.9-2.3,9c0.9,2.7,2.3,5,5,6.8s5.4,3.2,8.1,4.1c3.2,0.9,5.9,1.8,8.6,2.3
			c2.7,0.5,4.5,0.5,5.4,0.9c4.5,0.5,9,0.5,13.1,0c7.7-0.5,14.9-0.9,22.1-2.3c7.2-1.4,14.4-3.2,22.1-5c-8.6,10.4-16.7,19.8-23.4,28.4
			c-7.2,9-14,18-19.8,27c-13.5,2.3-27,5-40.5,7.7c-2.7,0.5-4.5,1.4-6.3,2.3c-1.4,0.9-2.7,1.8-3.2,3.2c-0.9,0.9-0.9,2.3-0.9,3.2
			s0,1.8,0,2.3c0.5,2.3,1.8,4.1,4.1,5.9c2.3,1.8,4.5,2.7,7.7,4.1c3.2,0.9,6.3,1.8,9.5,2.3c3.6,0.5,6.8,0.5,9.5,0.5h0.9
			c-2.7,4.1-5,8.6-7.7,13.1c-2.7,4.5-5,9-7.7,14c-2.3,3.6-2.3,6.8,0,10.4c1.8,3.2,5,5.4,8.6,7.2c4.1,1.8,7.7,2.7,10.8,2.7h0.5
			c4.5,0,8.1-1.8,10.4-5.4c5.4-9.5,10.8-18.5,15.8-26.6c5-8.1,10.4-15.8,15.8-23.4c16.2-2.7,32.9-5.4,49.5-7.2
			c16.7-2.3,33.3-4.1,50.5-5.4c10.4-0.9,14.9-4.1,14.4-9.9c0-2.7-1.4-4.5-3.6-6.3s-5-3.2-8.1-4.5c-3.2-0.9-6.8-1.8-9.9-2.3
			c-3.6-0.5-6.3-0.5-9-0.5c-20.3,1.8-40.5,3.6-60.8,6.3c4.5-5.4,9.5-11.3,14.4-17.1c5-5.9,10.4-12.2,15.8-18.5
			c1.4-1.8,2.3-4.1,2.3-6.3c0-2.3-1.4-5-4.1-7.2c-2.7-2.3-5.9-4.1-10.4-5.4c2.3-0.5,4.5-0.9,6.8-1.4c2.3-0.5,4.5-0.9,6.8-1.4
			c9.5-1.8,18.9-3.6,28.4-5.4s18.5-3.2,27.9-4.1l10.8-1.8c3.6-0.5,7.7-1.4,12.2-1.8c4.5-0.9,8.6-1.4,12.6-1.8c2.7,1.4,5.4,2.3,9,3.2
			c3.6,0.9,6.8,1.4,10.4,1.8c3.6,0,6.8,0,9.9-0.5c3.2-0.5,5.9-1.8,8.1-3.6c3.2-2.3,4.5-4.5,5-6.8C630.6,629,630.6,627.2,630.2,625.9
			z"/>
		<path fill="#020826" d="M634.7,665.5c6.8-0.9,12.6,0.5,18,3.6c5,3.2,9,7.2,11.3,12.6c2.3-2.3,4.1-4.5,5.9-6.3
			c1.8-1.8,3.6-3.2,5.4-4.5c3.2-2.3,6.8-3.6,10.4-4.5c3.6-0.9,7.2-0.9,9.9-0.5c3.2,0.5,5.4,1.4,7.2,3.2c1.8,1.8,2.7,4.1,2.7,6.8
			c0,1.8-1.4,4.1-3.2,7.2c-2.3,3.2-4.5,6.3-7.7,9.5c-3.2,3.6-6.3,6.8-9.5,10.4c-3.2,3.6-6.3,6.8-9,9.9c-2.7,3.2-5,5.9-6.3,8.1
			c-1.8,2.3-2.3,3.6-1.4,4.5c1.4,1.4,3.6,1.8,6.8,0.9s6.3-2.7,9.9-5.4c3.6-2.3,7.2-5,10.8-8.1c3.6-2.7,6.3-5.4,8.1-7.7
			c1.8-2.3,4.1-3.6,5.9-4.5c1.8-0.9,3.2-0.9,4.5,0c0.9,0.5,1.8,1.8,1.8,3.6s-0.9,4.1-2.3,7.2c-1.4,1.8-3.2,4.5-5.9,7.7
			s-5.9,6.3-9.5,9.5c-3.6,3.2-7.7,6.8-11.7,9.9c-4.1,3.2-8.1,6.3-12.6,8.6c-4.1,2.7-8.1,4.5-12.2,6.3c-3.6,1.8-7.2,2.3-9.9,2.3
			c-6.3-0.5-11.7-2.3-15.8-5c-4.1-2.7-6.3-6.3-6.8-10.8c-5.4,4.1-11.3,7.7-17.6,11.3c-6.3,3.6-12.2,5.9-17.6,7.7
			c-5.9,1.8-10.8,2.3-15.8,1.8c-5-0.5-9-3.2-11.7-7.2c-3.6-5-5.4-10.4-5.9-16.7c-0.5-5.9,0.9-12.2,3.2-18.5
			c2.3-6.3,5.9-12.2,10.4-18.5c4.5-5.9,9.9-11.3,16.2-16.2c6.3-5,13.1-9,20.7-12.2C618.9,668.7,626.6,666.4,634.7,665.5z M641,712.4
			c0.5-0.9,1.4-2.7,2.7-4.5c1.4-1.8,2.7-4.1,3.6-6.3c0.9-2.3,1.4-4.5,1.4-6.8s-1.4-4.1-3.6-5.4c-2.7-1.4-5.9-1.8-9.5-0.5
			c-3.6,0.9-7.7,3.2-11.3,5.4c-4.1,2.7-7.7,5.9-11.3,9.5c-3.6,3.6-6.3,7.2-8.6,10.8c-2.3,3.6-3.6,7.2-4.1,9.9
			c-0.5,3.2,0,5.4,2.3,6.8c1.8,1.4,4.1,1.4,6.8,0.5c2.7-0.9,5.9-2.3,9.5-4.1c3.6-1.8,7.2-4.5,10.8-7.2
			C633.3,718.2,637.4,715.5,641,712.4z"/>
		<path fill="#020826" d="M761.7,676.8c0,2.3-0.9,5.4-3.2,9c-2.3,3.6-5,7.7-8.6,11.7c-3.2,4.1-6.8,8.1-10.4,12.2
			c-3.6,4.1-6.3,7.7-8.6,10.8c-2.3,3.2-3.6,5.9-3.6,7.7c-0.5,1.8,1.4,2.7,4.5,2.7s6.3-1.4,9.9-3.6c3.6-2.3,7.2-5,10.8-7.7
			c3.6-3.2,6.8-5.9,9.9-9c3.2-3.2,5.4-5.4,7.2-7.7c1.8-1.8,3.6-3.2,5.4-3.6c1.8-0.5,3.2,0,4.1,0.9s1.4,2.7,0.9,5
			c-0.5,2.3-1.8,5-4.5,8.1c-3.2,3.6-6.8,8.1-11.7,13.1c-4.5,5-9.9,9.5-16.2,13.5c-6.3,4.1-12.6,7.7-19.8,10.4
			c-7.2,2.7-14.9,4.1-22.5,3.6c-6.3-0.5-10.4-1.8-12.6-5.4c-2.3-3.2-3.2-7.2-2.7-12.2c0.5-5,2.3-9.9,5-16.2
			c2.7-5.9,6.3-11.7,10.4-17.6c4.1-5.9,8.6-11.3,13.5-16.2c5-5,9.5-9.5,14-12.6c2.3-1.4,5-2.7,8.1-3.2c3.2-0.5,6.3-0.9,9.5-0.9
			c3.2,0,5.9,0.9,8.1,1.8C760.8,673.6,761.7,675,761.7,676.8z M769.8,632.7c2.3,0.9,4.1,2.3,6.3,5c1.8,2.7,3.2,5.4,4.1,8.6
			c0.5,3.2,0.5,6.3-0.9,9.5c-1.4,3.2-4.1,5.9-8.1,8.1c-4.1,2.3-8.1,3.2-12.2,2.7c-3.6-0.5-7.2-1.4-9.9-3.2c-2.7-1.8-5-4.5-6.3-7.7
			c-1.4-3.2-1.8-6.8-1.4-10.4c0.5-3.6,1.4-6.8,3.2-9c1.8-2.3,3.6-3.6,6.3-4.5c2.7-0.9,5.4-1.4,8.6-1.4
			C763.1,630.8,766.2,631.3,769.8,632.7z"/>
		<path fill="#020826" d="M796.9,664.6c5-1.8,9.9-2.7,14-2.3c4.1,0.5,6.8,1.4,8.6,3.2c3.6-3.6,7.2-6.8,10.4-9.5
			c3.6-2.7,6.3-4.1,9-4.5c4.1-0.5,7.2,0,10.4,1.8c3.2,1.8,5.9,3.6,8.1,6.3c2.3,2.3,4.1,5,5.9,7.2c1.8,2.3,3.2,4.1,4.5,4.5
			c1.4,0.9,2.7,0.9,5,0.5c2.3-0.5,4.1-1.4,5.9-1.8c1.8-0.9,3.6-0.9,5.4-0.9c1.8,0,2.7,0.9,3.2,2.7c0.9,2.7,0,5.4-2.3,7.7
			c-2.3,2.3-5,4.5-8.6,5.9c-3.6,1.8-7.2,3.2-10.8,4.1c-4.1,0.9-7.2,1.4-9.5,0.9c-2.7,0-5-0.9-6.8-2.3c-1.8-1.4-4.1-2.7-5.9-4.1
			c-1.8-1.4-4.1-2.3-5.9-3.2c-2.3-0.5-4.5-0.5-7.7,0.9c-3.2,1.4-7.7,4.5-13.1,9.5c-5.4,5-12.2,12.6-19.8,22.5
			c-2.7,4.1-5,8.1-7.7,11.7c-2.3,4.1-4.5,7.7-6.8,10.8c-1.8,3.2-3.6,5.9-5.4,8.1c-1.4,2.3-2.7,4.1-3.2,5c-1.4,1.8-3.2,3.2-5.9,4.1
			c-2.7,0.5-5.4,0.9-8.1,0.5s-5.4-1.4-7.7-2.7s-3.6-3.2-4.1-5c-0.5-1.4,0.5-4.5,2.7-8.6c2.3-4.5,4.5-9.5,8.1-15.8
			c3.2-5.9,6.8-12.2,10.8-18.9c4.1-6.8,7.7-12.6,11.3-18c3.6-5.4,6.8-10.4,9.9-14C794.1,667.3,795.9,665.1,796.9,664.6z"/>
	</g>
	<path fill="#020826" d="M179.7,787.6C23,777.7-96.4,643-86.5,485.8C-76.6,329,58.1,209.7,215.3,219.6c48.6,3.2,93.7,18,132.4,41.9
		c-50.5-43.7-114.9-71.6-186.5-76.1c-173.9-10.8-323.4,121.2-334.2,295c-10.8,173.9,121.2,323.4,295,334.2
		c71.6,4.5,139.2-15.3,194.6-52.3C274.8,781.3,228.4,790.8,179.7,787.6z"/>
</g>
</svg>
