<?xml version="1.0" encoding="utf-8"?>
<!-- Generator: Adobe Illustrator 17.1.0, SVG Export Plug-In . SVG Version: 6.00 Build 0)  -->
<!DOCTYPE svg PUBLIC "-//W3C//DTD SVG 1.1//EN" "http://www.w3.org/Graphics/SVG/1.1/DTD/svg11.dtd">
<svg version="1.1" id="Layer_1" xmlns="http://www.w3.org/2000/svg" xmlns:xlink="http://www.w3.org/1999/xlink" x="0px" y="0px"
	 viewBox="0 0 1000 1000" enable-background="new 0 0 1000 1000" xml:space="preserve">
<path fill="#F25042" d="M0,168v663.5c0,92.8,75.2,168,168,168h663.5c92.8,0,168-75.2,168-168V168c0-92.8-75.2-168-168-168H168
	C75.2,0,0,75.2,0,168z M475.7,941.9C231.5,926.6,45.9,716.7,61.3,472.5S286.5,42.8,530.6,58.1c100.9,6.3,191.4,45.9,262.2,107.2
	c-54.5-33.8-117.6-55-186-59C386.5,92.8,196.4,260.4,182.9,480.6C169.4,700.9,336.9,891,557.2,904.5c68.5,4.1,133.8-9,191.9-35.6
	C671.2,920.3,576.6,948.2,475.7,941.9z M939.6,326.6c-0.9,5.4-2.7,9.5-6.3,12.6c-27.5,26.6-53.6,55-78.4,84.7
	c-24.3,29.7-46.8,60.4-67.1,91.4c3.6,4.5,5.4,9,5.9,12.6c0.5,4.1,0,6.8-0.5,9c-1.8,9-7.7,14.9-17.1,17.6c-3.2,0.9-6.3,1.8-9,1.8
	c-1.8,0-3.2,0-3.6-0.5c-21.6,37.4-39.2,74.8-52.3,111.7c-1.8,5.4-5,9.5-9.5,12.2s-9.5,4.1-15.3,4.1c-4.1,0-8.6-0.9-12.2-2.3
	c-9-2.7-16.2-8.1-22.1-15.8c-5.9-7.7-7.2-15.8-4.1-24.3c5.9-16.7,12.6-35.1,21.2-55.4c8.1-20.3,18-41.9,28.4-64.9
	c-10.4-3.6-20.7-6.8-30.6-9c-10.4-2.3-19.8-4.5-29.3-6.3H636c-27-5.9-55-9.5-84.2-11.3c-12.6,17.6-25.2,35.1-37.8,51.8
	c-12.6,16.7-25.2,33.8-37.8,50.9c-11.3,15.3-22.5,30.6-34.2,45.9c-11.3,15.3-22.5,30.6-33.3,45.9c-1.4,1.8-3.6,3.6-6.8,5.9
	s-7.2,3.2-12.2,3.2c-2.3,0-4.1,0-5.4-0.5c-4.5-0.9-9.5-2.7-15.3-5.4c-5.4-2.7-10.8-6.3-15.8-9.9c-5-4.1-9.9-8.1-14-12.6
	c-4.1-4.5-6.8-9-8.1-14c-2.7-9-1.4-16.7,5-21.6c9.5-9.5,19.8-19.8,30.2-31.1c10.4-11.3,20.7-23,31.5-35.1
	c10.4-12.2,20.7-24.8,31.5-37.4c10.4-12.6,20.3-24.8,30.2-36.5c-42.8,1.4-76.6,4.5-101.4,9c-24.8,4.5-38.7,9.5-41.9,14.9
	c-1.8,2.3-4.5,4.5-8.1,7.2c-3.6,2.7-9.5,3.6-18,3.2c-4.1-0.5-8.6-1.4-13.5-3.2s-9.9-3.6-14.4-6.3c-4.5-2.7-8.6-5.9-12.6-9
	c-3.6-3.2-6.3-7.2-7.7-11.3c-3.2-7.7-1.8-14.9,3.6-21.2c8.6-9,22.1-16.7,40.1-22.1c18.5-5.4,39.2-9.5,62.6-12.2
	c23.4-2.7,48.6-4.1,75.7-4.1c26.6,0,53.2,0.5,78.4,1.4c9-11.3,16.2-20.7,22.1-28.4c5.9-7.7,9.5-12.6,11.3-15.3l5.9-8.1
	c2.3-2.7,3.6-5,4.1-6.3l-3.6,1.8c-18.9,5.9-37.4,13.5-56.3,23c-5,2.3-9.9,2.7-15.3,2.3c-5.4-0.9-10.4-2.3-15.3-5
	c-5-2.3-9-5.4-13.1-9c-4.1-3.6-6.8-7.2-8.6-11.3c-2.7-5.9-3.2-11.7-1.4-17.1c1.8-5.4,5.9-9.5,11.3-12.2
	c12.6-5.9,25.2-11.3,36.5-15.8c11.7-4.5,23.4-9,34.7-12.6l9-2.7c9-3.2,18.9-6.3,29.7-8.6c10.4-2.7,20.7-3.2,31.1-1.4
	c12.6,1.8,21.6,5.4,27.5,11.3c5.9,5.9,9.9,10.8,12.2,15.8c2.7,5.9,3.6,11.7,3.6,18s-0.9,12.2-2.3,18.5c-1.4,5.9-3.6,12.2-6.3,18
	s-5.4,11.3-8.6,15.8l-24.3,36c18,1.8,33.3,3.6,45.9,5c12.6,1.8,20.7,3.2,24.8,4.1c9.9,2.7,20.3,5,31.5,8.1
	c10.8,2.7,22.1,6.3,32.9,10.8c18.5-33.3,39.2-65.3,62.6-96.4s49.5-58.1,78.8-81.1c4.5-3.6,10.4-5.4,17.1-5.9
	c6.8-0.5,13.5,0.5,20.3,2.3c6.8,1.8,13.1,4.5,18.9,7.7c5.9,3.2,10.4,6.8,13.1,9.9C938.3,315.8,940.1,321.2,939.6,326.6z"/>
</svg>
